<svg width="250" height="200" viewBox="0 0 250 200" fill="none" xmlns="http://www.w3.org/2000/svg">
<path fill-rule="evenodd" clip-rule="evenodd" d="M207 65C210.866 65 214 68.134 214 72C214 75.866 210.866 79 207 79H167C170.866 79 174 82.134 174 86C174 89.866 170.866 93 167 93H189C192.866 93 196 96.134 196 100C196 103.866 192.866 107 189 107H178.826C173.952 107 170 110.134 170 114C170 116.577 172 118.911 176 121C179.866 121 183 124.134 183 128C183 131.866 179.866 135 176 135H93C89.134 135 86 131.866 86 128C86 124.134 89.134 121 93 121H54C50.134 121 47 117.866 47 114C47 110.134 50.134 107 54 107H94C97.866 107 101 103.866 101 100C101 96.134 97.866 93 94 93H69C65.134 93 62 89.866 62 86C62 82.134 65.134 79 69 79H109C105.134 79 102 75.866 102 72C102 68.134 105.134 65 109 65H207ZM207 93C210.866 93 214 96.134 214 100C214 103.866 210.866 107 207 107C203.134 107 200 103.866 200 100C200 96.134 203.134 93 207 93Z" fill="#FBFBFC"/>
<path fill-rule="evenodd" clip-rule="evenodd" d="M153.673 63.9997L162.975 131.842L163.811 138.649C164.08 140.841 162.521 142.837 160.328 143.106L101.768 150.297C99.5753 150.566 97.5795 149.007 97.3103 146.814L88.2945 73.3865C88.1599 72.2901 88.9395 71.2922 90.0359 71.1576C90.0428 71.1568 90.0497 71.156 90.0567 71.1552L94.915 70.6102M98.8436 70.1695L103.431 69.655Z" fill="white"/>
<path d="M154.912 63.8299C154.818 63.1459 154.187 62.6675 153.503 62.7613C152.82 62.8551 152.341 63.4855 152.435 64.1695L154.912 63.8299ZM162.975 131.842L164.216 131.69C164.215 131.684 164.214 131.678 164.214 131.673L162.975 131.842ZM163.811 138.649L165.052 138.496L163.811 138.649ZM160.328 143.106L160.481 144.347L160.328 143.106ZM101.768 150.297L101.92 151.537L101.768 150.297ZM97.3103 146.814L98.551 146.662L97.3103 146.814ZM90.0567 71.1552L90.196 72.3974L90.0567 71.1552ZM95.0544 71.8524C95.7404 71.7755 96.2342 71.1569 96.1572 70.4709C96.0803 69.7848 95.4617 69.291 94.7757 69.368L95.0544 71.8524ZM98.7042 68.9273C98.0182 69.0043 97.5244 69.6228 97.6014 70.3089C97.6783 70.9949 98.2969 71.4887 98.9829 71.4117L98.7042 68.9273ZM103.57 70.8972C104.256 70.8202 104.75 70.2017 104.673 69.5156C104.596 68.8296 103.977 68.3358 103.291 68.4128L103.57 70.8972ZM153.673 63.9997L152.435 64.1695L161.737 132.012L162.975 131.842L164.214 131.673L154.912 63.8299L153.673 63.9997ZM162.975 131.842L161.734 131.995L162.57 138.801L163.811 138.649L165.052 138.496L164.216 131.69L162.975 131.842ZM163.811 138.649L162.57 138.801C162.755 140.309 161.683 141.681 160.176 141.866L160.328 143.106L160.481 144.347C163.358 143.994 165.405 141.374 165.052 138.496L163.811 138.649ZM160.328 143.106L160.176 141.866L101.616 149.056L101.768 150.297L101.92 151.537L160.481 144.347L160.328 143.106ZM101.768 150.297L101.616 149.056C100.108 149.241 98.7361 148.169 98.551 146.662L97.3103 146.814L96.0696 146.966C96.423 149.844 99.0424 151.891 101.92 151.537L101.768 150.297ZM97.3103 146.814L98.551 146.662L89.5352 73.2341L88.2945 73.3865L87.0538 73.5388L96.0696 146.966L97.3103 146.814ZM88.2945 73.3865L89.5352 73.2341C89.4847 72.823 89.7771 72.4488 90.1882 72.3983L90.0359 71.1576L89.8835 69.9169C88.102 70.1357 86.8351 71.7572 87.0538 73.5388L88.2945 73.3865ZM90.0359 71.1576L90.1882 72.3983C90.1908 72.398 90.1934 72.3977 90.196 72.3974L90.0567 71.1552L89.9173 69.913C89.9061 69.9142 89.8948 69.9156 89.8835 69.9169L90.0359 71.1576ZM90.0567 71.1552L90.196 72.3974L95.0544 71.8524L94.915 70.6102L94.7757 69.368L89.9173 69.913L90.0567 71.1552ZM98.8436 70.1695L98.9829 71.4117L103.57 70.8972L103.431 69.655L103.291 68.4128L98.7042 68.9273L98.8436 70.1695Z" fill="#C2C2C2"/>
<path fill-rule="evenodd" clip-rule="evenodd" d="M151.141 68.2696L159.56 129.753L160.318 135.922C160.562 137.909 159.168 139.715 157.204 139.956L104.762 146.395C102.798 146.636 101.009 145.221 100.765 143.234L92.6148 76.8572C92.4802 75.7608 93.2598 74.7629 94.3562 74.6283L100.844 73.8318" fill="#DADADA" fill-opacity="0.19"/>
<path d="M110.672 51.25H156.229C156.958 51.25 157.657 51.5393 158.173 52.0547L171.616 65.4902C172.132 66.0059 172.422 66.7053 172.422 67.4346V130C172.422 131.519 171.191 132.75 169.672 132.75H110.672C109.153 132.75 107.922 131.519 107.922 130V54C107.922 52.4812 109.153 51.25 110.672 51.25Z" fill="white" stroke="#C2C2C2" stroke-width="2.5"/>
<path d="M156.672 52.4023V63.9995C156.672 65.6564 158.015 66.9995 159.672 66.9995H167.605" stroke="#C2C2C2" stroke-width="2.5" stroke-linecap="round" stroke-linejoin="round"/>
<path d="M118 118H144M118 67H144H118ZM118 79H161H118ZM118 92H161H118ZM118 105H161H118Z" stroke="#E5E5E5" stroke-width="2.5" stroke-linecap="round" stroke-linejoin="round"/>
</svg>
