<svg width="250" height="200" viewBox="0 0 250 200" fill="none" xmlns="http://www.w3.org/2000/svg">
<path d="M136 64C139.866 64 143 67.134 143 71C143 74.866 139.866 78 136 78H200C203.866 78 207 81.134 207 85C207 88.866 203.866 92 200 92H222C225.866 92 229 95.134 229 99C229 102.866 225.866 106 222 106H203C199.134 106 196 109.134 196 113C196 116.866 199.134 120 203 120H209C212.866 120 216 123.134 216 127C216 130.866 212.866 134 209 134H157C156.485 134 155.983 133.944 155.5 133.839C155.017 133.944 154.515 134 154 134H63C59.134 134 56 130.866 56 127C56 123.134 59.134 120 63 120H24C20.134 120 17 116.866 17 113C17 109.134 20.134 106 24 106H64C67.866 106 71 102.866 71 99C71 95.134 67.866 92 64 92H39C35.134 92 32 88.866 32 85C32 81.134 35.134 78 39 78H79C75.134 78 72 74.866 72 71C72 67.134 75.134 64 79 64H136ZM226 120C229.866 120 233 123.134 233 127C233 130.866 229.866 134 226 134C222.134 134 219 130.866 219 127C219 123.134 222.134 120 226 120Z" fill="#FBFBFC"/>
<path fill-rule="evenodd" clip-rule="evenodd" d="M86.2802 139.123L82.2101 139.695C80.0225 140.002 77.9998 138.478 77.6923 136.291L66.5585 57.0691C66.251 54.8815 67.7752 52.8588 69.9629 52.5513L148.194 41.5567C150.382 41.2492 152.404 42.7734 152.712 44.961C152.712 44.961 153.424 50.0264 153.669 51.7688" fill="white"/>
<path fill-rule="evenodd" clip-rule="evenodd" d="M88.807 134.713L85.1111 135.238C83.1246 135.52 81.2905 134.139 81.0145 132.153L71.0194 60.2281C70.7434 58.242 72.13 56.403 74.1165 56.1207L145.154 46.0239C147.14 45.7416 148.975 47.1228 149.251 49.1089L150.109 55.2897C150.156 55.6241 153.224 77.8236 159.315 121.888C159.621 124.101 158.095 126.145 155.907 126.454C155.884 126.458 155.86 126.461 155.837 126.464L88.807 134.713Z" fill="#DADADA" fill-opacity="0.19"/>
<path d="M86.2802 139.123L82.2101 139.695C80.0225 140.002 77.9998 138.478 77.6923 136.291L66.5585 57.0691C66.251 54.8815 67.7752 52.8588 69.9629 52.5513L148.194 41.5567C150.382 41.2492 152.404 42.7734 152.712 44.961C152.712 44.961 153.424 50.0264 153.669 51.7688" stroke="#C2C2C2" stroke-width="2.5" stroke-linecap="round"/>
<path d="M154.5 56.3799L155 59.5003" stroke="#C2C2C2" stroke-width="2.5" stroke-linecap="round"/>
<path d="M102.844 58.0411L181.411 66.2989C182.921 66.4577 184.017 67.8108 183.858 69.3213L175.496 148.883C175.337 150.394 173.984 151.489 172.474 151.331L93.9063 143.073C92.3959 142.914 91.3001 141.561 91.4589 140.05L99.8211 60.4886C99.9799 58.9782 101.333 57.8824 102.844 58.0411Z" fill="white" stroke="#C2C2C2" stroke-width="2.5"/>
<path fill-rule="evenodd" clip-rule="evenodd" d="M106.694 69.2551C106.867 67.6073 108.344 66.4119 109.991 66.5851L172.646 73.1704C174.294 73.3436 175.489 74.8197 175.316 76.4675L169.776 129.177C169.603 130.825 168.127 132.02 166.479 131.847L103.824 125.262C102.176 125.089 100.981 123.612 101.154 121.965L106.694 69.2551Z" fill="white"/>
<path fill-rule="evenodd" clip-rule="evenodd" d="M109.743 109.877L119.54 103.269C121.174 102.167 123.367 102.419 124.708 103.863L131.881 111.586C132.239 111.972 132.835 112.014 133.244 111.683L148.583 99.2529C150.431 97.7556 153.169 98.1917 154.461 100.189L164.442 115.626L165.875 118.018L165.188 126.143C165.141 126.704 164.641 127.115 164.082 127.053L107.119 120.724C106.577 120.664 106.184 120.181 106.234 119.638L106.988 111.44L109.743 109.877Z" fill="#DADADA" fill-opacity="0.19"/>
<path d="M109.861 67.8282L172.516 74.4135C173.477 74.5145 174.174 75.3756 174.073 76.3369L168.533 129.047C168.432 130.008 167.571 130.705 166.61 130.604L103.955 124.019C102.994 123.918 102.296 123.057 102.397 122.095L107.937 69.3857C108.038 68.4245 108.9 67.7272 109.861 67.8282Z" stroke="#C2C2C2" stroke-width="2.5"/>
<circle cx="122.031" cy="85.9498" r="6" transform="rotate(6 122.031 85.9498)" fill="#FBFBFC" stroke="#C2C2C2" stroke-width="2.5"/>
<path d="M107.728 111.425C111.665 108.707 119.537 103.27 119.537 103.27C121.171 102.168 123.364 102.42 124.705 103.864L131.879 111.587C132.237 111.972 132.832 112.014 133.241 111.683L148.581 99.2535C150.297 97.8627 152.816 98.1267 154.207 99.8431C154.296 99.954 154.38 100.07 154.458 100.19C154.458 100.19 163.426 114.42 165.522 117.746" stroke="#C2C2C2" stroke-width="2.5" stroke-linecap="round"/>
</svg>
