<svg version="1.2" xmlns="http://www.w3.org/2000/svg" viewBox="0 0 1112 627" width="1112" height="627">
	<title>colored logo cmyk-ai-svg</title>
	<style>
		.s0 { fill: #131616 } 
		.s1 { fill: #f1cd27 } 
		.s2 { fill: #fefefe } 
	</style>
	<g id="Layer 1">
		<g id="&lt;Group&gt;">
			<g id="&lt;Group&gt;">
				<g id="&lt;Group&gt;">
					<g id="&lt;Group&gt;">
						<path id="&lt;Compound Path&gt;" fill-rule="evenodd" class="s0" d="m118 374l27.7-220.2h69.6c48 0 89.5 4.9 82.8 57l-1.7 14.2c-2.4 17.8-11.8 29-24.7 37.6 11.5 10.5 16.2 28.7 14.9 41.5l-1.7 13.2c-5.7 44.8-35.1 56.7-97.3 56.7zm60.5-34.9l14.8 0.3q1.6 0 3.1 0c19.9 0 30.4-6.3 32.4-24.1l1.7-11.5c2-16.8-5.7-20.5-17.6-20.5h-27.7zm18.9-151.3l-7 57h27.7c11.8 0 20.2-4.2 22.2-20.4l1.4-10.9c3-24.1-8.4-25.7-29.1-25.7z"/>
						<path id="&lt;Compound Path&gt;" fill-rule="evenodd" class="s0" d="m294.4 374l91.5-219.9h84.8l38.2 219.9h-53.8l-9.1-55.7h-75l-21.9 55.7zm92.2-94.3h53.4l-15.9-88.4z"/>
						<path id="&lt;Compound Path&gt;" class="s0" d="m671.7 374l-66.2-154.3-19.3 154.3h-50.7l27.7-220.2h69.6l57.1 141.1 17.3-141.1h55.4l-27.7 220.2z"/>
						<path id="&lt;Compound Path&gt;" class="s0" d="m837.9 374h-56.4l27.3-219.9h56.4z"/>
					</g>
				</g>
				<g id="&lt;Group&gt;">
					<g id="&lt;Group&gt;">
						<path id="&lt;Compound Path&gt;" class="s0" d="m618.6 425.3h38.5c0 0 2.4 45.5 2.3 61.6 0 3 2.4 5.4 5.4 5.4h51.5q11.5 0 18.3-1 6.8-0.9 9.9-3.4 3-2.4 3-6.8v-12.1h34.7v8.7q0 14.8-3.9 24.9-3.9 10-13.1 16.2-9.2 6.1-25.2 8.9-15.9 2.7-39.8 2.7-23.9 0-39.7-2.7-15.9-2.8-25-8.8-9.1-6.1-13-16.2-3.9-10.2-3.9-25c0-4.8 0-52.4 0-52.4zm61.4 149.6q-3.5 0-7.8-3.2-4.3-3.2-7.6-7.5-3.3-4.3-3.3-7.5 0-3.4 3.2-7.5 3.1-4.2 7.5-7.2 4.3-3.1 7.8-3.1 3.7 0 7.9 3.1 4.2 3 7.4 7.2 3.1 4.1 3.1 7.7 0 3.2-3.2 7.4-3.3 4.2-7.5 7.4-4.2 3.2-7.5 3.2zm121.8-144v38.1h-54.3-49.3l2.2-39.5zm-80.3 144q-3.5 0-7.8-3.2-4.4-3.1-7.6-7.5-3.3-4.3-3.3-7.5 0-3.4 3.2-7.5 3.1-4.1 7.5-7.2 4.3-3.1 7.8-3.1 3.7 0 7.9 3.1 4.2 3.1 7.4 7.2 3.1 4.1 3.1 7.7 0 3.2-3.2 7.4-3.3 4.3-7.5 7.4-4.2 3.2-7.5 3.2z"/>
						<path id="&lt;Path&gt;" class="s0" d="m790.4 469v-38.1h54.4v38.1z"/>
						<path id="&lt;Compound Path&gt;" class="s0" d="m833.2 469v-38.1h32.5v-61.5h34.7v99.6zm50.2-123.9q-3.5 0-7.8-3.2-4.4-3.2-7.6-7.5-3.3-4.4-3.3-7.6 0-3.3 3.2-7.5 3.1-4.1 7.4-7.2 4.4-3 7.9-3 3.6 0 7.9 3 4.2 3.1 7.4 7.2 3.1 4.2 3.1 7.8 0 3.1-3.3 7.4-3.2 4.2-7.4 7.4-4.3 3.2-7.5 3.2z"/>
						<path id="&lt;Compound Path&gt;" class="s0" d="m930.8 469v-133.5h34.7v95.4h19.6v38.1z"/>
						<path id="&lt;Compound Path&gt;" class="s0" d="m957.1 469v-38.1h78.7v38.1z"/>
						<path id="&lt;Compound Path&gt;" class="s0" d="m1035.8 469v-38.1h32.6v-61.5h34.7v99.6zm50.1 52.9q-3.5 0-7.8-3.1-4.3-3.2-7.6-7.6-3.2-4.3-3.2-7.5 0-3.4 3.1-7.5 3.1-4.1 7.5-7.2 4.3-3.1 7.8-3.1 3.7 0 7.9 3.1 4.3 3.1 7.4 7.2 3.2 4.1 3.2 7.7 0 3.2-3.3 7.5-3.3 4.2-7.5 7.4-4.2 3.1-7.5 3.1z"/>
					</g>
				</g>
				<g id="&lt;Group&gt;">
					<path id="&lt;Path&gt;" class="s1" d="m491.3 478.6h-483.6v-420.8h882.1l-28.5 155.3 37.8-0.1-87.5 234.4 20.9-182.6-45.4-1.6 24.7-143.2-742.1-0.2v296.8h613.4l-162.8 110.6z"/>
					<path id="&lt;Compound Path&gt;" fill-rule="evenodd" class="s2" d="m895.9 68.7l-25 136.4h16.7l23-0.1-8 21.7-60.7 162.3-45.7 122.4 14.9-129.8 12.4-109.1-27.5-0.9-18.4-0.7 3.2-18.1 21.5-124.8-724.6-0.2v280.8h631.5l-43.1 29.2-134.3 91.2-14.1 9.6-8.7-14.6-22.2-37.4h-487.1v-436.8h899.7zm-880.3-2.8v404.7h493.2l-9.6 5.7 23.6 39.5 134.3-91.2h-595.5v-312.7l759.7 0.1-24.8 143.6 44.9 1.5-14.5 126.3 60.7-162.3h-36l28.6-155.2z"/>
				</g>
			</g>
			<path id="&lt;Path&gt;" class="s0" d="m790.4 469v-38.1h54.4v38.1z"/>
		</g>
	</g>
</svg>