<svg width="59" height="67" viewBox="0 0 59 67" fill="none" xmlns="http://www.w3.org/2000/svg">
<g clip-path="url(#clip0_1131_401)">
<path fill-rule="evenodd" clip-rule="evenodd" d="M18.3389 25.0179L35.8602 50.8123C37.6246 52.9788 40.579 55.4724 45.0927 55.7995C49.6064 56.1674 56.9103 55.7995 56.9103 55.7995L35.0805 22.1973L18.3389 25.0179Z" fill="#6A3D8D"/>
<path fill-rule="evenodd" clip-rule="evenodd" d="M38.7325 0.572266L55.5972 0.817537L39.2659 25.0177L27.9817 17.5778L38.7325 0.572266Z" fill="#5C4291"/>
<path fill-rule="evenodd" clip-rule="evenodd" d="M1.59717 1.0221L20.1853 27.8793C20.1853 27.8793 28.2279 37.4449 34.9164 30.2094C40.9893 23.5871 45.0927 16.2698 45.0927 16.2698C40.0866 17.3735 35.4498 19.0496 30.7309 15.6566C28.8844 14.3485 27.5303 12.8769 25.1094 9.52484C16.3692 -4.333 1.59717 1.0221 1.59717 1.0221Z" fill="#41B7AB"/>
<path fill-rule="evenodd" clip-rule="evenodd" d="M17.1899 31.5176C17.1899 31.5176 24.9863 40.8379 23.3449 45.1301C21.7446 49.4633 17.1899 55.963 17.1899 55.963H0.407227L17.1899 31.5176Z" fill="#5C4291"/>
<path d="M1.51505 66.9999H0.119909C0.0788753 66.9999 0.0378418 66.9999 0.0378418 66.9181V61.8901C0.0378418 61.8492 0.0788753 61.8083 0.119909 61.8083H1.51505C1.55608 61.8083 1.59711 61.8492 1.59711 61.8901V62.1762C1.80228 61.8901 2.08952 61.7266 2.54088 61.7266C3.19742 61.7266 3.60776 62.0127 3.77189 62.6259C3.85396 62.912 3.89499 63.2799 3.89499 63.7296C3.89499 64.1793 3.85396 64.5472 3.77189 64.7925C3.60776 65.4056 3.19742 65.6918 2.54088 65.6918C2.08952 65.6918 1.80228 65.5691 1.59711 65.2421V66.9181C1.59711 66.9999 1.55608 66.9999 1.51505 66.9999ZM1.63815 64.261C1.67918 64.3837 1.80228 64.4654 1.96642 64.4654C2.13055 64.4654 2.25365 64.3837 2.29468 64.261C2.33572 64.1384 2.33572 63.9749 2.33572 63.7296C2.33572 63.4843 2.33572 63.2799 2.29468 63.1982C2.25365 63.0347 2.13055 62.9529 1.96642 62.9529C1.80228 62.9529 1.67918 63.0347 1.63815 63.1982C1.59711 63.2799 1.59711 63.4435 1.59711 63.7296C1.59711 63.9749 1.59711 64.1384 1.63815 64.261Z" fill="#6A3D8D"/>
<path d="M5.90567 65.61H4.51053C4.42847 65.61 4.42847 65.61 4.42847 65.5283V61.8901C4.42847 61.8492 4.42847 61.8083 4.51053 61.8083H5.90567C5.94671 61.8083 5.98774 61.8492 5.98774 61.8901V62.258C6.15187 61.8901 6.48014 61.7266 6.97254 61.7266C7.13668 61.7266 7.25978 61.7266 7.34184 61.7674C7.38288 61.7674 7.38288 61.8083 7.38288 61.8492L6.93151 63.2799C6.89048 63.3208 6.84944 63.3208 6.80841 63.3208C6.60324 63.1982 6.39807 63.1573 6.27497 63.1573C6.06981 63.2391 5.98774 63.4026 5.98774 63.6887V65.5283C5.98774 65.61 5.94671 65.61 5.90567 65.61Z" fill="#6A3D8D"/>
<path d="M10.5834 65.4056C10.2551 65.61 9.88582 65.6918 9.43445 65.6918C8.98308 65.6918 8.57275 65.61 8.24448 65.4056C7.91621 65.2421 7.71105 64.956 7.58794 64.5881C7.50588 64.3428 7.46484 64.0566 7.46484 63.7296C7.46484 63.3617 7.50588 63.0756 7.58794 62.8712C7.71105 62.5033 7.91621 62.2171 8.24448 62.0127C8.57275 61.8083 8.98308 61.7266 9.43445 61.7266C9.88582 61.7266 10.2551 61.8083 10.5834 62.0127C10.9117 62.2171 11.1168 62.5033 11.2399 62.8712C11.322 63.0756 11.363 63.3617 11.363 63.7296C11.363 64.0566 11.322 64.3428 11.2399 64.5881C11.1168 64.956 10.9117 65.2421 10.5834 65.4056ZM9.10618 64.261C9.14722 64.3837 9.27032 64.4654 9.43445 64.4654C9.59859 64.4654 9.72169 64.3837 9.76272 64.261C9.76272 64.1384 9.80375 63.9749 9.80375 63.7296C9.80375 63.4843 9.76272 63.2799 9.76272 63.1982C9.72169 63.0347 9.59859 62.9529 9.43445 62.9529C9.27032 62.9529 9.14722 63.0347 9.10618 63.1982C9.06515 63.2799 9.06515 63.4435 9.06515 63.7296C9.06515 63.9749 9.06515 64.1384 9.10618 64.261Z" fill="#6A3D8D"/>
<path d="M15.5075 65.6102H14.1124C14.0713 65.6102 14.0303 65.6103 14.0303 65.5285V65.2423C13.8662 65.5694 13.5379 65.692 13.0865 65.692C12.471 65.692 12.0607 65.4059 11.8555 64.7927C11.7735 64.5474 11.7324 64.1795 11.7324 63.7298C11.7324 63.2802 11.7735 62.9123 11.8555 62.6261C12.0607 62.0129 12.471 61.7268 13.0865 61.7268C13.5379 61.7268 13.8662 61.8903 14.0303 62.1764V60.4187C14.0303 60.3778 14.0713 60.3369 14.1124 60.3369H15.5075C15.5896 60.3369 15.5896 60.3778 15.5896 60.4187V65.5285C15.5896 65.6103 15.5896 65.6102 15.5075 65.6102ZM13.3327 64.2613C13.3738 64.3839 13.4969 64.4657 13.661 64.4657C13.8251 64.4657 13.9482 64.3839 13.9893 64.2613C14.0303 64.1386 14.0303 63.9751 14.0303 63.7298C14.0303 63.4846 14.0303 63.2802 13.9893 63.1984C13.9482 63.0349 13.8251 62.9531 13.661 62.9531C13.4969 62.9531 13.3738 63.0349 13.3327 63.1984C13.3327 63.2802 13.2917 63.4437 13.2917 63.7298C13.2917 63.9751 13.3327 64.1386 13.3327 64.2613Z" fill="#6A3D8D"/>
<path d="M19.8981 65.6103H18.5029C18.4619 65.6103 18.4209 65.6103 18.4209 65.5285V65.2424C18.2157 65.5694 17.8874 65.6921 17.4361 65.6921C16.6564 65.6921 16.2461 65.2424 16.2461 64.3022V61.8904C16.2461 61.8495 16.2461 61.8086 16.3282 61.8086H17.7233C17.7643 61.8086 17.8054 61.8495 17.8054 61.8904V64.0569C17.8054 64.3022 17.8874 64.4248 18.0926 64.4248C18.3388 64.4248 18.4209 64.3022 18.4209 64.0569V61.8904C18.4209 61.8495 18.4619 61.8086 18.5029 61.8086H19.8981C19.9391 61.8086 19.9801 61.8495 19.9801 61.8904V65.5285C19.9801 65.6103 19.9391 65.6103 19.8981 65.6103Z" fill="#6A3D8D"/>
<path d="M22.36 65.6918C21.9086 65.6918 21.5393 65.61 21.252 65.4056C20.9238 65.2421 20.7186 64.956 20.5955 64.5472C20.5134 64.3428 20.4724 64.0975 20.4724 63.7296C20.4724 63.3617 20.5134 63.0756 20.5955 62.8712C20.7186 62.5033 20.9238 62.2171 21.252 62.0127C21.5393 61.8083 21.9086 61.7266 22.36 61.7266C22.7703 61.7266 23.1396 61.8083 23.4679 62.0127C23.7961 62.2171 24.0013 62.4624 24.0834 62.7894C24.1244 62.8303 24.0834 62.8712 24.0423 62.8712L22.9755 63.3208C22.8934 63.3617 22.8524 63.3617 22.8113 63.3208C22.7293 63.0756 22.6062 62.9529 22.442 62.9529C22.2369 62.9529 22.1548 63.0347 22.1138 63.1982C22.0727 63.2799 22.0727 63.4435 22.0727 63.7296C22.0727 63.9749 22.0727 64.1793 22.1138 64.2202C22.1548 64.3837 22.2369 64.4654 22.442 64.4654C22.6062 64.4654 22.7293 64.3428 22.8113 64.1384C22.8524 64.0566 22.8934 64.0566 22.9755 64.0975L24.0423 64.5472C24.0834 64.5881 24.1244 64.6289 24.0834 64.6698C24.0013 64.956 23.7961 65.2012 23.4679 65.4056C23.1396 65.61 22.7703 65.6918 22.36 65.6918Z" fill="#6A3D8D"/>
<path d="M26.4223 65.6918C25.9299 65.6918 25.5195 65.61 25.1913 65.4056C24.863 65.2012 24.6578 64.9151 24.5347 64.5472C24.4527 64.3428 24.4116 64.0566 24.4116 63.7296C24.4116 63.4026 24.4527 63.1164 24.5347 62.8712C24.6578 62.5033 24.863 62.2171 25.1502 62.0127C25.4785 61.8083 25.8478 61.7266 26.2992 61.7266C27.284 61.7266 27.8995 62.0945 28.1457 62.8303C28.1867 63.0756 28.2277 63.4843 28.2277 64.0566C28.2277 64.0975 28.2277 64.1384 28.1867 64.1384H25.9299C25.9299 64.1384 25.8888 64.1384 25.8888 64.1793C25.8888 64.2202 25.8888 64.2202 25.9299 64.261C25.9709 64.4654 26.2171 64.5881 26.5864 64.5881C26.8736 64.5881 27.1609 64.5063 27.4071 64.3019C27.4891 64.3019 27.4891 64.3019 27.5302 64.3428L28.1457 64.9968C28.1867 65.0377 28.1867 65.0786 28.1457 65.1195C27.6533 65.5283 27.0788 65.6918 26.4223 65.6918ZM25.9299 63.2799H26.7095C26.7505 63.2799 26.7916 63.2391 26.7916 63.2391C26.7916 63.1573 26.7505 63.0756 26.7505 63.0347C26.7095 62.8712 26.5454 62.7894 26.3402 62.7894C26.135 62.7894 25.9709 62.8712 25.9299 63.0347C25.9299 63.0756 25.8888 63.1573 25.8888 63.2391L25.9299 63.2799Z" fill="#6A3D8D"/>
<path d="M32.4133 65.6102H31.0181C30.9361 65.6102 30.9361 65.6103 30.9361 65.5285V65.2423H30.895C30.7309 65.5694 30.4026 65.692 29.9513 65.692C29.3358 65.692 28.9254 65.4059 28.7203 64.7927C28.6382 64.5474 28.5972 64.1795 28.5972 63.7298C28.5972 63.2802 28.6382 62.9123 28.7203 62.6261C28.9254 62.0129 29.3358 61.7268 29.9513 61.7268C30.4026 61.7268 30.7309 61.8903 30.895 62.1764H30.9361V60.4187C30.9361 60.3778 30.9361 60.3369 31.0181 60.3369H32.4133C32.4543 60.3369 32.4953 60.3778 32.4953 60.4187V65.5285C32.4953 65.6103 32.4543 65.6102 32.4133 65.6102ZM30.2385 64.2613C30.2795 64.3839 30.3616 64.4657 30.5668 64.4657C30.7309 64.4657 30.813 64.3839 30.895 64.2613C30.895 64.1386 30.9361 63.9751 30.9361 63.7298C30.9361 63.4846 30.895 63.2802 30.895 63.1984C30.813 63.0349 30.7309 62.9531 30.5668 62.9531C30.3616 62.9531 30.2795 63.0349 30.2385 63.1984C30.1975 63.2802 30.1564 63.4437 30.1564 63.7298C30.1564 63.9751 30.1975 64.1386 30.2385 64.2613Z" fill="#6A3D8D"/>
<path d="M37.5424 65.692C37.05 65.692 36.7627 65.5694 36.5576 65.2423V65.5285C36.5576 65.6103 36.5165 65.6102 36.4755 65.6102H35.0804C35.0393 65.6102 34.9983 65.6103 34.9983 65.5285V60.4187C34.9983 60.3778 35.0393 60.3369 35.0804 60.3369H36.4755C36.5165 60.3369 36.5576 60.3778 36.5576 60.4187V62.1764C36.7627 61.8903 37.05 61.7268 37.5424 61.7268C38.1579 61.7268 38.5682 62.0129 38.7323 62.6261C38.8144 62.9123 38.8965 63.2802 38.8965 63.7298C38.8965 64.1795 38.8144 64.5474 38.7323 64.7927C38.5682 65.4059 38.1579 65.692 37.5424 65.692ZM36.5986 64.2613C36.6396 64.3839 36.7627 64.4657 36.9269 64.4657C37.091 64.4657 37.2141 64.3839 37.2551 64.2613C37.2962 64.1386 37.2962 63.9751 37.2962 63.7298C37.2962 63.4846 37.2962 63.2802 37.2551 63.1984C37.2141 63.0349 37.091 62.9531 36.9269 62.9531C36.7627 62.9531 36.6396 63.0349 36.5986 63.1984C36.5576 63.2802 36.5576 63.4437 36.5576 63.7298C36.5576 63.9751 36.5576 64.1386 36.5986 64.2613Z" fill="#6A3D8D"/>
<path d="M40.0454 67.0002H39.7171C39.6761 67.0002 39.6351 67.0002 39.6351 66.9184V65.8556C39.6351 65.8147 39.6761 65.7738 39.7171 65.7738H39.9633C40.1685 65.7738 40.3326 65.6921 40.3737 65.5285L40.4557 65.3242L38.9785 61.8904C38.9785 61.8495 38.9785 61.8086 39.0606 61.8086H40.5378C40.5788 61.8086 40.6199 61.8495 40.6199 61.8904L41.1533 63.4437H41.1943L41.6867 61.8904C41.6867 61.8495 41.7278 61.8086 41.7688 61.8086H43.246C43.287 61.8086 43.287 61.8495 43.287 61.8904L41.4816 66.1826C41.3585 66.5096 41.1943 66.714 40.9892 66.8367C40.784 66.9593 40.4557 67.0002 40.0454 67.0002Z" fill="#6A3D8D"/>
<path d="M46.9801 61.4815H45.585C45.544 61.4815 45.5029 61.4406 45.5029 61.3998V60.4187C45.5029 60.3778 45.544 60.3369 45.585 60.3369H46.9801C47.0212 60.3369 47.0622 60.3778 47.0622 60.4187V61.3998C47.0622 61.4406 47.0212 61.4815 46.9801 61.4815ZM46.9801 65.6102H45.585C45.544 65.6102 45.5029 65.6103 45.5029 65.5285V61.8903C45.5029 61.8494 45.544 61.8085 45.585 61.8085H46.9801C47.0212 61.8085 47.0622 61.8494 47.0622 61.8903V65.5285C47.0622 65.6103 47.0212 65.6102 46.9801 65.6102Z" fill="#6A3D8D"/>
<path d="M47.7598 64.2202C47.6777 64.2202 47.6777 64.2202 47.6777 64.1385V62.9939C47.6777 62.9121 47.6777 62.9121 47.7598 62.9121H50.2218C50.2628 62.9121 50.3039 62.9121 50.3039 62.9939V64.1385C50.3039 64.2202 50.2628 64.2202 50.2218 64.2202H47.7598Z" fill="#6A3D8D"/>
<path d="M53.4225 65.692C52.9711 65.692 52.6429 65.5694 52.4787 65.2423H52.4377V65.5285C52.4377 65.6103 52.4377 65.6102 52.3556 65.6102H50.9605C50.9194 65.6102 50.8784 65.6103 50.8784 65.5285V60.4187C50.8784 60.3778 50.9194 60.3369 50.9605 60.3369H52.3556C52.4377 60.3369 52.4377 60.3778 52.4377 60.4187V62.1764H52.4787C52.6429 61.8903 52.9711 61.7268 53.4225 61.7268C54.038 61.7268 54.4483 62.0129 54.6535 62.6261C54.7356 62.9123 54.7766 63.2802 54.7766 63.7298C54.7766 64.1795 54.7356 64.5474 54.6535 64.7927C54.4483 65.4059 54.038 65.692 53.4225 65.692ZM52.4787 64.2613C52.5608 64.3839 52.6429 64.4657 52.807 64.4657C53.0122 64.4657 53.0942 64.3839 53.1353 64.2613C53.1763 64.1386 53.2173 63.9751 53.2173 63.7298C53.2173 63.4846 53.1763 63.2802 53.1353 63.1984C53.0942 63.0349 53.0122 62.9531 52.807 62.9531C52.6429 62.9531 52.5608 63.0349 52.4787 63.1984C52.4787 63.2802 52.4377 63.4437 52.4377 63.7298C52.4377 63.9751 52.4787 64.1386 52.4787 64.2613Z" fill="#6A3D8D"/>
<path d="M57.1564 65.6918C56.664 65.6918 56.2537 65.61 55.9254 65.4056C55.5971 65.2012 55.3509 64.9151 55.2278 64.5472C55.1868 64.3428 55.1458 64.0566 55.1458 63.7296C55.1458 63.4026 55.1868 63.1164 55.2278 62.8712C55.3509 62.5033 55.5971 62.2171 55.8844 62.0127C56.2126 61.8083 56.5819 61.7266 57.0333 61.7266C58.0181 61.7266 58.5926 62.0945 58.8388 62.8303C58.9208 63.0756 58.9619 63.4843 58.9619 64.0566C58.9619 64.0975 58.9208 64.1384 58.8798 64.1384H56.664C56.623 64.1384 56.623 64.1384 56.623 64.1793C56.623 64.2202 56.623 64.2202 56.623 64.261C56.705 64.4654 56.9512 64.5881 57.3205 64.5881C57.6078 64.5881 57.895 64.5063 58.1412 64.3019C58.1822 64.3019 58.2233 64.3019 58.2643 64.3428L58.8798 64.9968C58.9208 65.0377 58.8798 65.0786 58.8388 65.1195C58.3874 65.5283 57.8129 65.6918 57.1564 65.6918ZM56.664 63.2799H57.4436C57.4847 63.2799 57.4847 63.2391 57.4847 63.2391C57.4847 63.1573 57.4847 63.0756 57.4847 63.0347C57.4026 62.8712 57.2795 62.7894 57.0743 62.7894C56.8281 62.7894 56.705 62.8712 56.664 63.0347C56.623 63.0756 56.623 63.1573 56.623 63.2391C56.623 63.2391 56.623 63.2799 56.664 63.2799Z" fill="#6A3D8D"/>
</g>
<defs>
<clipPath id="clip0_1131_401">
<rect width="59" height="67" fill="white"/>
</clipPath>
</defs>
</svg>
