<svg width="142" height="47" viewBox="0 0 142 47" fill="none" xmlns="http://www.w3.org/2000/svg">
<path d="M26.95 20.188C25.6763 22.2319 25.0008 24.5917 25 27C25.004 28.5264 25.2769 30.0402 25.806 31.472H33.4587C32.4794 29.782 31.0667 27.3207 26.95 20.188ZM36.4574 20.9333H49.4575C48.5409 19.1992 47.2439 17.6949 45.6634 16.5332C44.0829 15.3715 42.2601 14.5825 40.3314 14.2253L36.4574 20.9333ZM49.0155 33.8727C50.0597 32.2214 50.7127 30.3534 50.9245 28.4112C51.1362 26.469 50.9013 24.5041 50.2375 22.6667H42.5414C43.8415 24.92 47.7068 31.6193 49.0155 33.8727ZM44.0668 28.8027L37.6274 40H38.0001C39.8841 39.9973 41.7451 39.5851 43.454 38.792C45.163 37.9988 46.6791 36.8437 47.8975 35.4067L44.0668 28.8027ZM31.9334 25.336L38.4508 14H38.0001C36.1047 14.0028 34.2328 14.42 32.5156 15.2225C30.7984 16.0249 29.2775 17.1932 28.0594 18.6453L31.9334 25.336ZM39.5428 33.2053H26.5427C27.4806 34.9178 28.7904 36.3983 30.3756 37.5381C31.9609 38.6779 33.7814 39.4481 35.7034 39.792L39.5428 33.2053Z" fill="#2C5072"/>
<path d="M17.203 15.026V20.095H6.621V25.571H14.539V30.492H6.621V41H0.294V15.026H17.203ZM58.6595 27.976C58.6595 25.4107 59.2145 23.129 60.3245 21.131C61.4345 19.1083 62.9761 17.542 64.9495 16.432C66.9475 15.2973 69.2045 14.73 71.7205 14.73C74.8038 14.73 77.4431 15.544 79.6385 17.172C81.8338 18.8 83.3015 21.02 84.0415 23.832H77.0855C76.5675 22.7467 75.8275 21.9203 74.8655 21.353C73.9281 20.7857 72.8551 20.502 71.6465 20.502C69.6978 20.502 68.1191 21.1803 66.9105 22.537C65.7018 23.8937 65.0975 25.7067 65.0975 27.976C65.0975 30.2453 65.7018 32.0583 66.9105 33.415C68.1191 34.7717 69.6978 35.45 71.6465 35.45C72.8551 35.45 73.9281 35.1663 74.8655 34.599C75.8275 34.0317 76.5675 33.2053 77.0855 32.12H84.0415C83.3015 34.932 81.8338 37.152 79.6385 38.78C77.4431 40.3833 74.8038 41.185 71.7205 41.185C69.2045 41.185 66.9475 40.63 64.9495 39.52C62.9761 38.3853 61.4345 36.819 60.3245 34.821C59.2145 32.823 58.6595 30.5413 58.6595 27.976ZM94.1321 15.026V30.566C94.1321 32.12 94.5144 33.3163 95.2791 34.155C96.0437 34.9937 97.1661 35.413 98.6461 35.413C100.126 35.413 101.261 34.9937 102.05 34.155C102.839 33.3163 103.234 32.12 103.234 30.566V15.026H109.561V30.529C109.561 32.8477 109.068 34.8087 108.081 36.412C107.094 38.0153 105.762 39.224 104.085 40.038C102.432 40.852 100.582 41.259 98.5351 41.259C96.4877 41.259 94.6501 40.8643 93.0221 40.075C91.4187 39.261 90.1484 38.0523 89.2111 36.449C88.2737 34.821 87.8051 32.8477 87.8051 30.529V15.026H94.1321ZM123.402 41.259C121.503 41.259 119.801 40.9507 118.296 40.334C116.791 39.7173 115.583 38.8047 114.67 37.596C113.782 36.3873 113.313 34.932 113.264 33.23H119.998C120.097 34.192 120.43 34.932 120.997 35.45C121.564 35.9433 122.304 36.19 123.217 36.19C124.154 36.19 124.894 35.9803 125.437 35.561C125.98 35.117 126.251 34.5127 126.251 33.748C126.251 33.1067 126.029 32.5763 125.585 32.157C125.166 31.7377 124.635 31.3923 123.994 31.121C123.377 30.8497 122.489 30.5413 121.33 30.196C119.653 29.678 118.284 29.16 117.223 28.642C116.162 28.124 115.25 27.3593 114.485 26.348C113.72 25.3367 113.338 24.017 113.338 22.389C113.338 19.9717 114.214 18.0847 115.965 16.728C117.716 15.3467 119.998 14.656 122.81 14.656C125.671 14.656 127.978 15.3467 129.729 16.728C131.48 18.0847 132.418 19.984 132.541 22.426H125.696C125.647 21.5873 125.338 20.9337 124.771 20.465C124.204 19.9717 123.476 19.725 122.588 19.725C121.823 19.725 121.207 19.9347 120.738 20.354C120.269 20.7487 120.035 21.3283 120.035 22.093C120.035 22.9317 120.43 23.5853 121.219 24.054C122.008 24.5227 123.242 25.0283 124.919 25.571C126.596 26.1383 127.953 26.681 128.989 27.199C130.05 27.717 130.962 28.4693 131.727 29.456C132.492 30.4427 132.874 31.713 132.874 33.267C132.874 34.747 132.492 36.0913 131.727 37.3C130.987 38.5087 129.902 39.4707 128.471 40.186C127.04 40.9013 125.351 41.259 123.402 41.259Z" fill="#1D3557"/>
</svg>
