<svg width="334" height="395" viewBox="0 0 334 395" fill="none" xmlns="http://www.w3.org/2000/svg">
<path fill-rule="evenodd" clip-rule="evenodd" d="M38.5098 7.69922H309.89C320.45 7.69922 329.09 16.3392 329.09 26.8992V236.399C329.09 246.959 320.45 255.599 309.89 255.599H23.5398C12.9798 255.599 4.33984 246.959 4.33984 236.399V41.8692C4.33984 23.0792 19.7198 7.69922 38.5098 7.69922Z" fill="#40417B"/>
<path d="M6.57812 321.319C8.10812 321.349 9.33813 321.199 10.2581 320.869C11.1781 320.539 11.8481 319.969 12.2681 319.169C12.6781 318.379 12.8881 317.349 12.8881 316.109V290.879H17.7081V316.109C17.7081 318.309 17.2981 320.189 16.4681 321.749C15.6381 323.309 14.4681 324.509 12.9581 325.339C11.4481 326.169 9.62812 326.599 7.48812 326.629C7.47812 326.619 6.57812 321.319 6.57812 321.319Z" fill="#474888"/>
<path d="M29.2184 313.909V308.419H34.9084V313.909H29.2184ZM24.3984 313.909V274.729H29.2184V313.909H24.3984ZM34.9084 313.909V308.419C35.2584 308.419 35.5084 308.669 35.6484 309.159C35.7884 309.649 35.8684 310.309 35.8684 311.139C35.8684 311.969 35.7984 312.628 35.6484 313.148C35.4984 313.668 35.2584 313.909 34.9084 313.909Z" fill="#474888"/>
<path d="M34.9092 313.91V308.42H43.1792V313.91H34.9092ZM43.1792 313.91V308.42C43.5292 308.42 43.7792 308.67 43.9192 309.16C44.0592 309.65 44.1392 310.31 44.1392 311.14C44.1392 311.97 44.0692 312.63 43.9192 313.15C43.7692 313.67 43.5292 313.91 43.1792 313.91ZM34.9092 313.91C34.5592 313.91 34.3092 313.65 34.1692 313.15C34.0292 312.64 33.9492 311.96 33.9492 311.09C33.9492 310.26 34.0192 309.61 34.1692 309.13C34.3092 308.65 34.5592 308.41 34.9092 308.41V313.91Z" fill="#474888"/>
<path d="M43.1787 313.91V308.42H51.4487V313.91H43.1787ZM51.4487 313.91V308.42C51.7987 308.42 52.0487 308.67 52.1887 309.16C52.3287 309.65 52.4087 310.31 52.4087 311.14C52.4087 311.97 52.3387 312.63 52.1887 313.15C52.0387 313.67 51.7987 313.91 51.4487 313.91ZM43.1787 313.91C42.8287 313.91 42.5787 313.65 42.4387 313.15C42.2987 312.64 42.2188 311.96 42.2188 311.09C42.2188 310.26 42.2887 309.61 42.4387 309.13C42.5787 308.65 42.8287 308.41 43.1787 308.41V313.91Z" fill="#474888"/>
<path d="M51.4405 313.91V308.42H59.7105V313.91H51.4405ZM59.7105 313.91V308.42C60.0605 308.42 60.3105 308.67 60.4505 309.16C60.5905 309.65 60.6705 310.31 60.6705 311.14C60.6705 311.97 60.6005 312.63 60.4505 313.15C60.3005 313.66 60.0605 313.91 59.7105 313.91ZM51.4405 313.91C51.0905 313.91 50.8405 313.65 50.7005 313.15C50.5605 312.64 50.4805 311.96 50.4805 311.09C50.4805 310.26 50.5505 309.61 50.7005 309.13C50.8405 308.65 51.0905 308.41 51.4405 308.41V313.91Z" fill="#474888"/>
<path d="M59.71 313.91V308.42H67.98V313.91H59.71ZM67.98 313.91V308.42C68.33 308.42 68.58 308.67 68.72 309.16C68.86 309.65 68.94 310.31 68.94 311.14C68.94 311.97 68.87 312.63 68.72 313.15C68.57 313.66 68.33 313.91 67.98 313.91ZM59.71 313.91C59.36 313.91 59.11 313.65 58.97 313.15C58.83 312.64 58.75 311.96 58.75 311.09C58.75 310.26 58.82 309.61 58.97 309.13C59.11 308.65 59.36 308.41 59.71 308.41V313.91Z" fill="#474888"/>
<path d="M67.9795 313.91V308.42H76.2495V313.91H67.9795ZM76.2395 313.91V308.42C76.5895 308.42 76.8395 308.67 76.9795 309.16C77.1195 309.65 77.1995 310.31 77.1995 311.14C77.1995 311.97 77.1295 312.63 76.9795 313.15C76.8295 313.67 76.5895 313.91 76.2395 313.91ZM67.9795 313.91C67.6295 313.91 67.3795 313.65 67.2395 313.15C67.0995 312.64 67.0195 311.96 67.0195 311.09C67.0195 310.26 67.0895 309.61 67.2395 309.13C67.3795 308.65 67.6295 308.41 67.9795 308.41V313.91Z" fill="#474888"/>
<path d="M101.281 313.91C99.0513 313.91 97.2413 313.57 95.8313 312.88C94.4313 312.2 93.3913 311.15 92.7213 309.75C92.0513 308.35 91.7213 306.58 91.7213 304.44V304.35H96.5413V304.44C96.5413 305.52 96.6513 306.35 96.8713 306.92C97.0913 307.49 97.5513 307.88 98.2313 308.09C98.9213 308.3 99.9313 308.4 101.261 308.4H103.221V313.89L101.281 313.91ZM76.2412 313.91C75.8912 313.91 75.6413 313.65 75.5013 313.15C75.3613 312.64 75.2812 311.96 75.2812 311.09C75.2812 310.26 75.3513 309.61 75.5013 309.13C75.6413 308.65 75.8912 308.41 76.2412 308.41V313.91ZM76.2412 313.91V308.42H84.5612C86.0912 308.42 87.3913 308.24 88.4613 307.87C89.5312 307.5 90.3413 307.01 90.9013 306.39C91.4613 305.77 91.7313 305.07 91.7313 304.31C91.7313 303.8 91.6013 303.27 91.3213 302.73C91.0513 302.19 90.5312 301.54 89.7412 300.77C88.9612 300.01 87.8112 299.03 86.2812 297.83C84.7513 296.64 82.7113 295.13 80.1613 293.31L77.7712 291.49L80.9713 287.33L84.3112 289.82C86.3812 291.35 88.1913 292.71 89.7313 293.9C91.2713 295.09 92.5513 296.23 93.5513 297.32C94.5613 298.4 95.3013 299.5 95.7913 300.61C96.2813 301.72 96.5312 302.95 96.5312 304.29C96.5312 306.33 96.0012 308.06 94.9512 309.5C93.9012 310.93 92.4613 312.02 90.6513 312.77C88.8313 313.52 86.7913 313.89 84.5312 313.89H76.2412V313.91ZM77.7712 291.5V285.58L98.4613 276.02V281.99L77.7712 291.5ZM103.241 313.91V308.42C103.591 308.42 103.841 308.67 103.981 309.16C104.121 309.65 104.201 310.31 104.201 311.14C104.201 311.97 104.131 312.63 103.981 313.15C103.841 313.66 103.591 313.91 103.241 313.91Z" fill="#474888"/>
<path d="M103.241 313.909V308.419H105.681C107.051 308.419 108.071 308.319 108.741 308.109C109.411 307.899 109.851 307.509 110.081 306.939C110.311 306.369 110.421 305.539 110.421 304.459V290.889H115.241V304.459C115.241 306.599 114.911 308.359 114.231 309.769C113.561 311.169 112.521 312.219 111.121 312.899C109.721 313.589 107.901 313.929 105.671 313.929L103.241 313.909ZM119.961 313.909C117.731 313.909 115.921 313.569 114.511 312.879C113.111 312.199 112.071 311.149 111.401 309.749C110.731 308.349 110.391 306.579 110.391 304.439H115.211C115.211 305.519 115.321 306.349 115.551 306.919C115.771 307.489 116.231 307.879 116.911 308.089C117.601 308.299 118.611 308.399 119.941 308.399H121.901V313.889L119.961 313.909ZM121.921 313.909V308.419C122.271 308.419 122.521 308.669 122.661 309.159C122.801 309.649 122.881 310.309 122.881 311.139C122.881 311.969 122.811 312.629 122.661 313.149C122.521 313.659 122.271 313.909 121.921 313.909ZM103.241 313.909C102.891 313.909 102.641 313.649 102.501 313.149C102.361 312.639 102.281 311.959 102.281 311.089C102.281 310.259 102.351 309.609 102.501 309.129C102.641 308.649 102.891 308.409 103.241 308.409V313.909ZM116.231 285.049C115.401 285.049 114.711 284.769 114.151 284.219C113.591 283.669 113.321 282.969 113.321 282.139C113.321 281.279 113.601 280.579 114.151 280.029C114.701 279.479 115.401 279.219 116.231 279.219C117.061 279.219 117.751 279.489 118.311 280.029C118.871 280.569 119.141 281.269 119.141 282.139C119.141 282.969 118.861 283.659 118.311 284.219C117.761 284.779 117.061 285.049 116.231 285.049ZM109.451 285.049C108.621 285.049 107.931 284.769 107.371 284.219C106.811 283.659 106.541 282.969 106.541 282.139C106.541 281.279 106.821 280.579 107.371 280.029C107.931 279.489 108.621 279.219 109.451 279.219C110.281 279.219 110.971 279.489 111.531 280.029C112.091 280.569 112.361 281.269 112.361 282.139C112.361 282.969 112.081 283.659 111.531 284.219C110.981 284.779 110.271 285.049 109.451 285.049Z" fill="#474888"/>
<path d="M128.611 290.879H133.431V313.909H121.911V308.419H128.601V290.879H128.611ZM121.921 313.909C121.571 313.909 121.321 313.649 121.181 313.149C121.041 312.639 120.961 311.959 120.961 311.089C120.961 310.259 121.031 309.609 121.181 309.129C121.321 308.649 121.571 308.409 121.921 308.409V313.909ZM129.181 326.709C128.291 326.709 127.531 326.399 126.911 325.779C126.291 325.159 125.981 324.399 125.981 323.509C125.981 322.589 126.291 321.819 126.911 321.219C127.531 320.609 128.291 320.309 129.181 320.309C130.101 320.309 130.871 320.609 131.471 321.219C132.071 321.829 132.381 322.589 132.381 323.509C132.381 324.399 132.081 325.159 131.471 325.779C130.871 326.399 130.111 326.709 129.181 326.709Z" fill="#474888"/>
<path d="M161.252 313.909V274.729H166.072V313.909H161.252ZM140.602 313.909V308.419H166.072V313.909H140.602ZM147.342 313.909V285.048H152.162V313.909H147.342Z" fill="#474888"/>
<path d="M173.719 313.909V274.729H178.539V313.909H173.719Z" fill="#474888"/>
<path d="M205.07 313.91V308.42H212.09V313.91H205.07ZM195.27 321.32C196.8 321.35 198.03 321.2 198.95 320.87C199.87 320.54 200.54 319.97 200.96 319.17C201.37 318.38 201.58 317.35 201.58 316.11V290.88H206.4V316.11C206.4 318.31 205.99 320.19 205.16 321.75C204.33 323.31 203.16 324.51 201.65 325.34C200.14 326.17 198.32 326.6 196.18 326.63C196.17 326.62 195.27 321.32 195.27 321.32ZM212.09 313.91V308.42C212.44 308.42 212.69 308.67 212.83 309.16C212.97 309.65 213.05 310.31 213.05 311.14C213.05 311.97 212.98 312.63 212.83 313.15C212.68 313.67 212.44 313.91 212.09 313.91ZM204.01 284.48C203.12 284.48 202.36 284.17 201.74 283.55C201.12 282.93 200.81 282.17 200.81 281.28C200.81 280.36 201.12 279.59 201.74 278.99C202.36 278.38 203.12 278.08 204.01 278.08C204.93 278.08 205.7 278.38 206.3 278.99C206.91 279.6 207.21 280.36 207.21 281.28C207.21 282.17 206.91 282.93 206.3 283.55C205.7 284.16 204.94 284.48 204.01 284.48Z" fill="#474888"/>
<path d="M212.089 313.91V308.42H220.359V313.91H212.089ZM220.359 313.91V308.42C220.709 308.42 220.959 308.67 221.099 309.16C221.239 309.65 221.319 310.31 221.319 311.14C221.319 311.97 221.249 312.63 221.099 313.15C220.949 313.66 220.709 313.91 220.359 313.91ZM212.089 313.91C211.739 313.91 211.489 313.65 211.349 313.15C211.209 312.64 211.129 311.96 211.129 311.09C211.129 310.26 211.199 309.61 211.349 309.13C211.489 308.65 211.739 308.41 212.089 308.41V313.91Z" fill="#474888"/>
<path d="M220.358 313.91V308.42H228.628V313.91H220.358ZM228.618 313.91V308.42C228.968 308.42 229.218 308.67 229.358 309.16C229.498 309.65 229.578 310.31 229.578 311.14C229.578 311.97 229.508 312.63 229.358 313.15C229.218 313.66 228.968 313.91 228.618 313.91ZM220.358 313.91C220.008 313.91 219.758 313.65 219.618 313.15C219.478 312.64 219.398 311.96 219.398 311.09C219.398 310.26 219.468 309.61 219.618 309.13C219.758 308.65 220.008 308.41 220.358 308.41V313.91Z" fill="#474888"/>
<path d="M228.62 313.91V308.42H236.89V313.91H228.62ZM236.89 313.91V308.42C237.24 308.42 237.49 308.67 237.63 309.16C237.77 309.65 237.85 310.31 237.85 311.14C237.85 311.97 237.78 312.63 237.63 313.15C237.48 313.67 237.24 313.91 236.89 313.91ZM228.62 313.91C228.27 313.91 228.02 313.65 227.88 313.15C227.74 312.64 227.66 311.96 227.66 311.09C227.66 310.26 227.73 309.61 227.88 309.13C228.02 308.65 228.27 308.41 228.62 308.41V313.91Z" fill="#474888"/>
<path d="M236.89 313.91V308.42H245.16V313.91H236.89ZM245.15 313.91V308.42C245.5 308.42 245.75 308.67 245.89 309.16C246.03 309.65 246.11 310.31 246.11 311.14C246.11 311.97 246.04 312.63 245.89 313.15C245.75 313.66 245.5 313.91 245.15 313.91ZM236.89 313.91C236.54 313.91 236.29 313.65 236.15 313.15C236.01 312.64 235.93 311.96 235.93 311.09C235.93 310.26 236 309.61 236.15 309.13C236.29 308.65 236.54 308.41 236.89 308.41V313.91Z" fill="#474888"/>
<path d="M245.151 313.91V308.42H253.421V313.91H245.151ZM253.421 313.91V308.42C253.771 308.42 254.021 308.67 254.161 309.16C254.301 309.65 254.381 310.31 254.381 311.14C254.381 311.97 254.311 312.63 254.161 313.15C254.011 313.67 253.771 313.91 253.421 313.91ZM245.151 313.91C244.801 313.91 244.551 313.65 244.411 313.15C244.271 312.64 244.191 311.96 244.191 311.09C244.191 310.26 244.261 309.61 244.411 309.13C244.551 308.65 244.801 308.41 245.151 308.41V313.91Z" fill="#474888"/>
<path d="M253.421 313.91V308.42H261.741C263.271 308.42 264.571 308.24 265.641 307.87C266.711 307.5 267.521 307.01 268.081 306.39C268.641 305.77 268.911 305.07 268.911 304.31C268.911 303.8 268.781 303.27 268.501 302.73C268.231 302.19 267.711 301.54 266.921 300.77C266.141 300.01 264.991 299.03 263.461 297.83C261.931 296.64 259.891 295.13 257.341 293.31L254.951 291.49L258.151 287.33L261.491 289.82C263.561 291.35 265.371 292.71 266.911 293.9C268.451 295.09 269.731 296.23 270.731 297.32C271.741 298.4 272.481 299.5 272.971 300.61C273.461 301.72 273.711 302.95 273.711 304.29C273.711 306.33 273.181 308.06 272.131 309.5C271.081 310.93 269.641 312.02 267.831 312.77C266.011 313.52 263.971 313.89 261.711 313.89H253.421V313.91ZM254.951 291.5V285.58L275.641 276.02V281.99L254.951 291.5ZM253.421 313.91C253.071 313.91 252.821 313.65 252.681 313.15C252.541 312.64 252.461 311.96 252.461 311.09C252.461 310.26 252.531 309.61 252.681 309.13C252.821 308.65 253.071 308.41 253.421 308.41V313.91Z" fill="#474888"/>
<path d="M288.302 313.909V308.419H295.322V313.909H288.302ZM278.512 321.319C280.042 321.349 281.272 321.199 282.192 320.869C283.112 320.539 283.782 319.969 284.202 319.169C284.612 318.379 284.822 317.349 284.822 316.109V290.879H289.642V316.109C289.642 318.309 289.232 320.189 288.402 321.749C287.572 323.309 286.402 324.509 284.892 325.339C283.382 326.169 281.562 326.599 279.422 326.629C279.412 326.619 278.512 321.319 278.512 321.319ZM295.332 313.909V308.419C295.682 308.419 295.932 308.669 296.072 309.159C296.212 309.649 296.292 310.309 296.292 311.139C296.292 311.969 296.222 312.629 296.072 313.149C295.932 313.659 295.682 313.909 295.332 313.909Z" fill="#474888"/>
<path d="M295.331 313.91V308.42C296.861 308.42 298.141 308.12 299.151 307.51C300.171 306.9 301.071 306.08 301.851 305.02C302.631 303.97 303.381 302.79 304.121 301.48C304.851 300.21 305.631 298.95 306.461 297.71C307.291 296.47 308.201 295.34 309.181 294.32C310.171 293.3 311.271 292.48 312.471 291.86C313.681 291.24 315.051 290.93 316.581 290.93C318.271 290.93 319.711 291.29 320.901 292.01C322.091 292.73 323.061 293.68 323.791 294.88C324.521 296.07 325.061 297.4 325.391 298.87C325.721 300.33 325.891 301.82 325.891 303.31C325.891 304.93 325.671 306.77 325.221 308.83C324.771 310.89 324.041 312.81 323.021 314.59L318.811 311.87C319.541 310.6 320.101 309.23 320.481 307.76C320.861 306.3 321.051 304.81 321.051 303.32C321.051 300.96 320.671 299.23 319.911 298.11C319.151 297 318.031 296.44 316.571 296.44C315.651 296.44 314.781 296.67 313.971 297.13C313.161 297.59 312.301 298.39 311.421 299.52C310.531 300.65 309.481 302.24 308.261 304.28C306.991 306.45 305.731 308.25 304.511 309.68C303.291 311.11 301.951 312.18 300.501 312.88C299.051 313.58 297.341 313.91 295.331 313.91ZM322.811 309.08L323.051 314.58C320.181 314.74 317.701 314.71 315.601 314.51C313.491 314.3 311.651 313.93 310.081 313.39C308.501 312.85 307.101 312.16 305.871 311.31C304.641 310.47 303.501 309.5 302.451 308.42L305.941 304.6C307.121 305.81 308.451 306.77 309.931 307.49C311.411 308.21 313.201 308.69 315.281 308.95C317.361 309.2 319.871 309.25 322.811 309.08ZM295.331 313.91C294.981 313.91 294.731 313.65 294.591 313.15C294.451 312.64 294.371 311.96 294.371 311.09C294.371 310.26 294.441 309.61 294.591 309.13C294.731 308.65 294.981 308.41 295.331 308.41V313.91Z" fill="#474888"/>
<path d="M18.8194 386.499C16.5294 386.499 14.4794 386.069 12.6994 385.209C10.9194 384.349 9.40938 383.159 8.16938 381.629C6.92938 380.099 5.97938 378.329 5.32938 376.309C4.67938 374.289 4.35938 372.099 4.35938 369.749C4.35938 368.349 4.46938 366.939 4.68938 365.499C4.90938 364.069 5.19938 362.699 5.56938 361.399L10.0394 362.259C9.72938 363.599 9.48938 364.879 9.31938 366.099C9.14937 367.329 9.05938 368.539 9.05938 369.749C9.05938 372.109 9.44938 374.129 10.2394 375.809C11.0294 377.499 12.1594 378.789 13.6394 379.669C15.1094 380.559 16.8394 381.009 18.8194 381.009C20.8394 381.009 22.5694 380.569 24.0294 379.669C25.4794 378.779 26.6094 377.489 27.3994 375.809C28.1894 374.129 28.5794 372.099 28.5794 369.749V337.539H33.2794V369.749C33.2794 372.109 32.9494 374.289 32.2994 376.309C31.6494 378.329 30.6994 380.099 29.4594 381.629C28.2194 383.159 26.7094 384.349 24.9294 385.209C23.1494 386.069 21.1094 386.499 18.8194 386.499Z" fill="#474888"/>
<path d="M44.5008 376.669V371.179H50.0308V376.669H44.5008ZM39.8008 376.669V337.539H44.5008V376.669H39.8008ZM50.0308 376.669V371.179C50.3708 371.179 50.6108 371.429 50.7508 371.919C50.8908 372.409 50.9608 373.069 50.9608 373.899C50.9608 374.729 50.8908 375.389 50.7508 375.899C50.6108 376.419 50.3708 376.669 50.0308 376.669Z" fill="#474888"/>
<path d="M50.0316 376.67V371.18H58.0816V376.67H50.0316ZM58.0816 376.67V371.18C58.4216 371.18 58.6616 371.43 58.8016 371.92C58.9416 372.41 59.0116 373.07 59.0116 373.9C59.0116 374.73 58.9416 375.39 58.8016 375.9C58.6616 376.42 58.4216 376.67 58.0816 376.67ZM50.0316 376.67C49.6916 376.67 49.4516 376.41 49.3116 375.91C49.1716 375.4 49.1016 374.72 49.1016 373.86C49.1016 373.03 49.1716 372.38 49.3116 371.9C49.4516 371.42 49.6916 371.19 50.0316 371.19V376.67Z" fill="#474888"/>
<path d="M92.4484 376.669C90.4284 376.669 88.7684 376.329 87.4684 375.649C86.1684 374.969 85.1984 373.919 84.5684 372.529C83.9284 371.129 83.6084 369.369 83.6084 367.229V366.089H87.8384V367.229C87.8384 368.309 87.9484 369.139 88.1584 369.709C88.3784 370.279 88.8184 370.669 89.4884 370.879C90.1584 371.089 91.1384 371.189 92.4384 371.189H94.3484V376.679L92.4484 376.669ZM58.0784 376.669C57.7384 376.669 57.4984 376.409 57.3584 375.909C57.2184 375.399 57.1484 374.719 57.1484 373.859C57.1484 373.029 57.2184 372.379 57.3584 371.899C57.4984 371.419 57.7384 371.189 58.0784 371.189V376.669ZM58.0784 376.669V371.179C59.5684 371.179 60.8084 370.879 61.7984 370.269C62.7884 369.659 63.6684 368.839 64.4284 367.789C65.1884 366.739 65.9184 365.559 66.6384 364.259C67.3484 362.989 68.1084 361.729 68.9184 360.489C69.7284 359.249 70.6084 358.119 71.5684 357.099C72.5284 356.079 73.5984 355.259 74.7784 354.639C75.9584 354.019 77.2884 353.709 78.7784 353.709C80.4184 353.709 81.8284 354.069 82.9884 354.779C84.1484 355.489 85.0884 356.449 85.7984 357.639C86.5084 358.829 87.0284 360.159 87.3584 361.629C87.6884 363.089 87.8484 364.569 87.8484 366.069C87.8484 367.689 87.6284 369.529 87.1984 371.579C86.7584 373.629 86.0484 375.549 85.0584 377.329L80.9684 374.609C81.6784 373.339 82.2284 371.969 82.5984 370.509C82.9684 369.049 83.1584 367.569 83.1584 366.069C83.1584 363.719 82.7884 361.979 82.0384 360.869C81.2884 359.759 80.2084 359.199 78.7884 359.199C77.8884 359.199 77.0384 359.429 76.2484 359.889C75.4584 360.349 74.6284 361.149 73.7584 362.269C72.8884 363.399 71.8684 364.979 70.6884 367.019C69.4484 369.179 68.2284 370.979 67.0384 372.409C65.8484 373.839 64.5384 374.909 63.1384 375.609C61.7184 376.309 60.0384 376.659 58.0784 376.669ZM84.8184 371.849L85.0484 377.339C82.2584 377.499 79.8384 377.469 77.7984 377.269C75.7484 377.059 73.9584 376.689 72.4284 376.149C70.8984 375.609 69.5284 374.919 68.3384 374.079C67.1484 373.239 66.0384 372.279 65.0084 371.189L68.4084 367.369C69.5484 368.579 70.8484 369.539 72.2884 370.259C73.7284 370.979 75.4684 371.459 77.4984 371.709C79.5284 371.969 81.9684 372.009 84.8184 371.849ZM94.3484 376.669V371.179C94.6884 371.179 94.9284 371.429 95.0684 371.919C95.2084 372.409 95.2784 373.069 95.2784 373.899C95.2784 374.729 95.2084 375.389 95.0684 375.899C94.9384 376.419 94.6884 376.669 94.3484 376.669Z" fill="#474888"/>
<path d="M94.348 376.67V371.18H102.398V376.67H94.348ZM102.398 376.67V371.18C102.738 371.18 102.978 371.43 103.118 371.92C103.258 372.41 103.328 373.07 103.328 373.9C103.328 374.73 103.258 375.39 103.118 375.9C102.978 376.42 102.738 376.67 102.398 376.67ZM94.348 376.67C94.008 376.67 93.768 376.41 93.628 375.91C93.488 375.4 93.418 374.72 93.418 373.86C93.418 373.03 93.488 372.38 93.628 371.9C93.768 371.42 94.008 371.19 94.348 371.19V376.67Z" fill="#474888"/>
<path d="M120.909 375.668C118.369 375.668 116.039 375.288 113.909 374.528C111.779 373.768 110.089 372.588 108.839 370.998C107.579 369.408 106.959 367.358 106.959 364.838C106.959 362.738 107.329 360.888 108.079 359.308C108.829 357.718 109.849 356.388 111.149 355.318C112.449 354.258 113.939 353.458 115.609 352.938C117.279 352.408 119.049 352.148 120.909 352.148C122.269 352.148 123.709 352.288 125.209 352.578C126.709 352.868 128.089 353.278 129.329 353.818L127.279 358.448C126.379 358.188 125.339 357.998 124.139 357.848C122.949 357.708 121.879 357.628 120.949 357.628C118.009 357.628 115.719 358.278 114.089 359.588C112.459 360.898 111.649 362.628 111.649 364.788C111.649 366.158 111.989 367.318 112.669 368.268C113.349 369.218 114.379 369.948 115.759 370.438C117.139 370.928 118.849 371.178 120.899 371.178L120.909 375.668ZM102.399 376.668V371.178H130.209V376.668H102.399ZM102.399 376.668C102.059 376.668 101.819 376.408 101.679 375.908C101.539 375.398 101.469 374.718 101.469 373.858C101.469 373.028 101.539 372.378 101.679 371.898C101.819 371.418 102.059 371.188 102.399 371.188V376.668Z" fill="#474888"/>
<path d="M155.418 376.669V337.539H160.118V376.669H155.418ZM135.328 376.669V371.179H160.118V376.669H135.328ZM141.878 376.669V347.849H146.578V376.669H141.878ZM145.738 342.889C144.098 342.889 142.758 342.559 141.718 341.909C140.678 341.259 140.158 340.289 140.158 339.019C140.158 338.129 140.408 337.369 140.908 336.729C141.408 336.089 142.058 335.599 142.858 335.249C143.668 334.899 144.528 334.719 145.458 334.719C146.018 334.719 146.568 334.779 147.108 334.909C147.648 335.039 148.168 335.229 148.668 335.479L147.458 338.199C147.208 338.139 146.928 338.089 146.598 338.059C146.268 338.029 145.988 338.009 145.738 338.009C144.868 338.009 144.188 338.139 143.688 338.389C143.188 338.649 142.938 338.929 142.938 339.249C142.938 339.569 143.188 339.859 143.688 340.109C144.188 340.369 144.868 340.489 145.738 340.489V342.889ZM139.328 343.839V340.499H149.188V343.839H139.328Z" fill="#474888"/>
<path d="M167.559 376.669V337.539H172.249V376.669H167.559Z" fill="#474888"/>
<path d="M199.972 350.708H204.012C210.062 355.888 213.082 361.028 213.082 366.118C213.082 368.188 212.612 370.018 211.682 371.608C210.752 373.198 209.462 374.438 207.802 375.328C206.142 376.218 204.202 376.668 201.962 376.668C199.762 376.668 197.822 376.228 196.152 375.328C194.482 374.428 193.172 373.198 192.252 371.608C191.332 370.018 190.852 368.208 190.852 366.168C190.862 361.088 193.892 355.928 199.972 350.708ZM201.552 356.198C199.472 358.138 197.952 359.928 196.992 361.568C196.032 363.208 195.552 364.738 195.552 366.168C195.552 367.188 195.812 368.068 196.322 368.818C196.832 369.568 197.572 370.148 198.532 370.558C199.492 370.968 200.642 371.178 201.972 371.178C203.332 371.178 204.492 370.968 205.432 370.558C206.382 370.148 207.102 369.558 207.622 368.798C208.132 368.038 208.392 367.148 208.392 366.128C208.392 364.728 207.912 363.198 206.952 361.548C205.992 359.898 204.492 358.118 202.442 356.198C202.432 356.198 201.552 356.198 201.552 356.198ZM205.272 344.888C204.472 344.888 203.792 344.608 203.252 344.058C202.712 343.498 202.432 342.808 202.432 341.978C202.432 341.118 202.702 340.418 203.252 339.878C203.792 339.338 204.472 339.068 205.272 339.068C206.082 339.068 206.752 339.338 207.292 339.878C207.832 340.418 208.102 341.118 208.102 341.978C208.102 342.808 207.832 343.498 207.292 344.058C206.752 344.618 206.082 344.888 205.272 344.888ZM198.672 344.888C197.872 344.888 197.192 344.608 196.652 344.058C196.112 343.498 195.842 342.808 195.842 341.978C195.842 341.118 196.112 340.418 196.652 339.878C197.192 339.338 197.872 339.068 198.672 339.068C199.482 339.068 200.152 339.338 200.692 339.878C201.232 340.418 201.502 341.118 201.502 341.978C201.502 342.808 201.232 343.498 200.692 344.058C200.152 344.608 199.482 344.888 198.672 344.888Z" fill="#474888"/>
<path d="M235.55 376.669C235.52 373.269 234.93 370.229 233.78 367.549C232.64 364.879 231 362.649 228.87 360.869C226.75 359.089 224.19 357.839 221.22 357.149L222.29 351.799C225.95 352.659 229.11 354.239 231.78 356.549C234.45 358.859 236.52 361.719 237.99 365.139C239.47 368.559 240.22 372.399 240.25 376.669H235.55ZM217.27 376.669V371.179H239.27V376.669H217.27Z" fill="#474888"/>
<path d="M250.989 376.669V371.179H256.519V376.669H250.989ZM246.289 376.669V337.539H250.989V376.669H246.289ZM256.519 376.669V371.179C256.859 371.179 257.099 371.429 257.239 371.919C257.379 372.409 257.449 373.069 257.449 373.899C257.449 374.729 257.379 375.389 257.239 375.899C257.099 376.419 256.859 376.669 256.519 376.669Z" fill="#474888"/>
<path d="M256.52 376.67V371.18H264.57V376.67H256.52ZM264.57 376.67V371.18C264.91 371.18 265.15 371.43 265.29 371.92C265.43 372.41 265.5 373.07 265.5 373.9C265.5 374.73 265.43 375.39 265.29 375.9C265.15 376.42 264.91 376.67 264.57 376.67ZM256.52 376.67C256.18 376.67 255.94 376.41 255.8 375.91C255.66 375.4 255.59 374.72 255.59 373.86C255.59 373.03 255.66 372.38 255.8 371.9C255.94 371.42 256.18 371.19 256.52 371.19V376.67Z" fill="#474888"/>
<path d="M264.571 376.67V371.18H272.621V376.67H264.571ZM272.621 376.67V371.18C272.961 371.18 273.201 371.43 273.341 371.92C273.481 372.41 273.551 373.07 273.551 373.9C273.551 374.73 273.481 375.39 273.341 375.9C273.201 376.42 272.951 376.67 272.621 376.67ZM264.571 376.67C264.231 376.67 263.991 376.41 263.851 375.91C263.711 375.4 263.641 374.72 263.641 373.86C263.641 373.03 263.711 372.38 263.851 371.9C263.991 371.42 264.231 371.19 264.571 371.19V376.67Z" fill="#474888"/>
<path d="M279.13 353.67H283.83V376.67H272.62V371.18H279.13V353.67ZM272.61 376.67C272.27 376.67 272.03 376.41 271.89 375.91C271.75 375.4 271.68 374.72 271.68 373.86C271.68 373.03 271.75 372.38 271.89 371.9C272.03 371.42 272.27 371.19 272.61 371.19V376.67ZM282.99 388.32C282.19 388.32 281.51 388.03 280.97 387.46C280.43 386.89 280.15 386.2 280.15 385.41C280.15 384.55 280.42 383.85 280.97 383.31C281.52 382.77 282.19 382.5 282.99 382.5C283.8 382.5 284.47 382.77 285.01 383.31C285.55 383.85 285.82 384.55 285.82 385.41C285.82 386.2 285.55 386.89 285.01 387.46C284.47 388.03 283.79 388.32 282.99 388.32ZM276.38 388.32C275.57 388.32 274.9 388.03 274.36 387.46C273.82 386.89 273.55 386.2 273.55 385.41C273.55 384.55 273.82 383.85 274.36 383.31C274.9 382.77 275.58 382.5 276.38 382.5C277.18 382.5 277.86 382.77 278.4 383.31C278.94 383.85 279.21 384.55 279.21 385.41C279.21 386.2 278.94 386.89 278.4 387.46C277.86 388.03 277.19 388.32 276.38 388.32Z" fill="#474888"/>
<path d="M287.078 384.07C288.568 384.1 289.758 383.95 290.658 383.62C291.558 383.29 292.208 382.72 292.608 381.93C293.008 381.14 293.218 380.12 293.218 378.87V353.67H297.918V378.87C297.918 381.06 297.518 382.94 296.708 384.5C295.898 386.06 294.768 387.25 293.288 388.08C291.818 388.91 290.048 389.34 287.968 389.37L287.078 384.07Z" fill="#474888"/>
<path d="M306.751 389.369V383.879H315.821C317.741 383.879 319.121 383.489 319.961 382.689C320.801 381.899 321.221 380.619 321.221 378.869V354.669H325.921V378.869C325.921 381.099 325.511 382.999 324.691 384.569C323.871 386.149 322.711 387.339 321.201 388.149C319.701 388.959 317.911 389.369 315.831 389.369H306.751ZM316.841 376.669C314.421 376.669 312.321 376.129 310.541 375.049C308.761 373.969 307.371 372.509 306.381 370.679C305.391 368.849 304.891 366.839 304.891 364.639C304.891 362.859 305.201 361.209 305.821 359.699C306.441 358.189 307.311 356.869 308.421 355.739C309.531 354.609 310.831 353.729 312.281 353.089C313.741 352.449 315.311 352.129 316.981 352.129C318.621 352.129 320.221 352.389 321.771 352.919C323.321 353.449 324.701 354.019 325.911 354.659L323.821 359.569C321.281 358.269 319.001 357.609 316.981 357.609C315.581 357.609 314.331 357.919 313.211 358.539C312.091 359.159 311.211 359.989 310.561 361.039C309.911 362.089 309.581 363.279 309.581 364.619C309.581 365.889 309.881 367.019 310.491 368.009C311.101 368.999 311.941 369.769 313.031 370.329C314.121 370.889 315.391 371.159 316.851 371.159H323.551V376.649L316.841 376.669Z" fill="#474888"/>
<path d="M318.092 179.43C316.432 180.79 306.032 191.64 301.892 194.88C297.752 198.12 290.582 200.08 282.982 200.08C269.412 200.08 258.862 193.82 258.492 185.84C258.262 173.03 264.452 162.93 283.062 162.33L300.922 162.4C316.522 162.4 329.102 150.49 329.102 135.72C329.102 126.75 324.502 119.07 317.342 114.24C300.462 102.56 274.462 103.69 253.282 118.61C244.542 124.79 237.752 132.55 233.162 140.92C229.692 126.67 221.482 114.62 208.972 107.69C193.372 98.9502 174.452 100 157.572 108.82L172.792 45.2902C172.792 45.1402 172.862 44.9902 172.862 44.8402C173.092 43.5602 173.242 42.2002 173.242 40.8402C173.242 29.6102 164.122 20.4902 152.892 20.4902C143.172 20.4902 135.032 27.2702 133.002 36.3902L132.472 36.3202L90.412 215.01C90.182 215.69 90.032 216.37 89.962 217.04L89.582 218.55H89.732C89.662 219.3 89.582 219.98 89.582 220.74C89.582 231.97 98.702 241.09 109.932 241.09C118.752 241.09 126.212 235.52 129.072 227.68L129.142 227.45C129.592 226.17 129.892 224.81 130.122 223.45L130.502 221.87C133.512 224.89 136.982 227.52 140.752 229.71C168.182 245.08 205.642 230.16 224.482 196.55C226.812 192.33 228.772 187.96 230.362 183.59C231.872 188.19 233.902 192.64 236.622 196.4C251.392 217.35 284.252 219.54 310.482 201.52C319.072 195.64 325.632 187.35 325.632 187.35C328.272 184.18 326.682 181.17 325.252 179.44C323.892 177.62 319.752 178.07 318.092 179.43ZM274.302 130.07C284.102 124.04 294.882 123.74 298.422 129.39C301.962 135.04 296.842 144.61 287.042 150.64C277.242 156.67 266.462 156.97 262.922 151.32C259.462 145.66 264.512 136.17 274.302 130.07ZM194.262 174.16C185.742 200.24 167.052 217.57 152.582 212.9C138.112 208.15 133.292 183.21 141.802 157.06C150.322 130.98 169.012 113.65 183.482 118.33C197.952 123.06 202.782 148.09 194.262 174.16Z" fill="white"/>
<path d="M24.6316 236.46L16.4916 234.58C8.13158 232.62 2.85158 224.18 4.73158 215.81L40.7316 64.4102C46.5016 70.7102 56.8716 74.6902 64.4216 74.6902C71.9816 74.6902 75.4116 73.2502 80.0116 70.7402L43.4016 224.7C41.5116 233.07 33.0016 238.34 24.6316 236.46Z" fill="white"/>
<path d="M88.0028 156.349H77.0728C72.4028 156.349 68.6328 152.579 68.6328 147.909V143.389C68.6328 138.719 72.4028 134.949 77.0728 134.949H88.0028C92.6728 134.949 96.4428 138.719 96.4428 143.389V147.909C96.4428 152.579 92.6028 156.349 88.0028 156.349Z" fill="white"/>
<path d="M65.712 64.4099C78.9006 64.4099 89.592 54.1707 89.592 41.5399C89.592 28.9092 78.9006 18.6699 65.712 18.6699C52.5235 18.6699 41.832 28.9092 41.832 41.5399C41.832 54.1707 52.5235 64.4099 65.712 64.4099Z" fill="white"/>
</svg>
