<?xml version="1.0" encoding="UTF-8"?><svg id="Layer_1" xmlns="http://www.w3.org/2000/svg" viewBox="0 0 512 512"><defs><style>.cls-1{fill:#0b5cff;}</style></defs><path class="cls-1" d="M123.93,306.17H42.98c-5.35,0-10.43-2.81-12.9-7.61-2.81-5.48-1.78-12.06,2.54-16.38l56.33-56.27H48.6c-11.11,0-20.1-8.98-20.1-20.08H103.08c5.35,0,10.43,2.81,12.9,7.61,2.81,5.48,1.78,12.06-2.54,16.38l-56.33,56.27h46.72c11.11,0,20.1,8.98,20.1,20.08Zm320.4-101.85c-11.59,0-22.02,5-29.16,13.02-7.2-8.02-17.63-13.02-29.16-13.02-21.54,0-39.11,18.37-39.11,39.82v62.03c11.11,0,20.1-8.98,20.1-20.08v-42.15c0-10.35,8.03-19.12,18.32-19.53,10.84-.41,19.83,8.29,19.83,19.05v42.63c0,11.1,8.99,20.08,20.1,20.08v-62.24c0-10.35,8.03-19.12,18.32-19.53,10.84-.41,19.83,8.29,19.83,19.05v42.63c0,11.1,8.99,20.08,20.1,20.08v-62.03c-.07-21.45-17.63-39.82-39.17-39.82Zm-218.99,51.68c0,28.51-23.19,51.68-51.73,51.68s-51.73-23.17-51.73-51.68,23.26-51.68,51.73-51.68,51.73,23.17,51.73,51.68Zm-20.1,0c0-17.41-14.2-31.6-31.63-31.6s-31.63,14.19-31.63,31.6,14.2,31.6,31.63,31.6,31.63-14.19,31.63-31.6Zm131.59,0c0,28.51-23.19,51.68-51.73,51.68s-51.73-23.17-51.73-51.68,23.26-51.68,51.73-51.68,51.73,23.17,51.73,51.68Zm-20.1,0c0-17.41-14.2-31.6-31.63-31.6s-31.63,14.19-31.63,31.6,14.2,31.6,31.63,31.6,31.63-14.19,31.63-31.6Z"/></svg>