<svg width="1210" height="960" viewBox="0 0 1210 960" fill="none" xmlns="http://www.w3.org/2000/svg">
<rect x="1" y="92" width="41.6667" height="41.6667" rx="4.5977" stroke="#F0F0F0" stroke-width="0.431035"/>
<rect x="42.6667" y="92" width="41.6667" height="41.6667" rx="4.5977" stroke="#F0F0F0" stroke-width="0.431035"/>
<rect x="84.3333" y="92" width="41.6667" height="41.6667" rx="4.5977" stroke="#F0F0F0" stroke-width="0.431035"/>
<rect x="126" y="92" width="41.6667" height="41.6667" rx="4.5977" stroke="#F0F0F0" stroke-width="0.431035"/>
<rect x="167.667" y="92" width="41.6667" height="41.6667" rx="4.5977" stroke="#F0F0F0" stroke-width="0.431035"/>
<rect x="209.333" y="92" width="41.6667" height="41.6667" rx="4.5977" stroke="#F0F0F0" stroke-width="0.431035"/>
<rect x="584" y="92" width="41.6667" height="41.6667" rx="4.5977" stroke="#F0F0F0" stroke-width="0.431035"/>
<rect x="625.667" y="92" width="41.6667" height="41.6667" rx="4.5977" stroke="#F0F0F0" stroke-width="0.431035"/>
<rect x="667.333" y="92" width="41.6667" height="41.6667" rx="4.5977" stroke="#F0F0F0" stroke-width="0.431035"/>
<rect x="709" y="92" width="41.6667" height="41.6667" rx="4.5977" stroke="#F0F0F0" stroke-width="0.431035"/>
<rect x="750.667" y="92" width="41.6667" height="41.6667" rx="4.5977" stroke="#F0F0F0" stroke-width="0.431035"/>
<rect x="792.333" y="92" width="41.6667" height="41.6667" rx="4.5977" stroke="#F0F0F0" stroke-width="0.431035"/>
<rect width="41.6667" height="41.6667" rx="4.5977" transform="matrix(1 0 0 -1 1 867.735)" stroke="#F0F0F0" stroke-width="0.431035"/>
<rect width="41.6667" height="41.6667" rx="4.5977" transform="matrix(1 0 0 -1 42.6667 867.735)" stroke="#F0F0F0" stroke-width="0.431035"/>
<rect width="41.6667" height="41.6667" rx="4.5977" transform="matrix(1 0 0 -1 84.3333 867.735)" stroke="#F0F0F0" stroke-width="0.431035"/>
<rect width="41.6667" height="41.6667" rx="4.5977" transform="matrix(1 0 0 -1 126 867.735)" stroke="#F0F0F0" stroke-width="0.431035"/>
<rect width="41.6667" height="41.6667" rx="4.5977" transform="matrix(1 0 0 -1 167.667 867.735)" stroke="#F0F0F0" stroke-width="0.431035"/>
<rect width="41.6667" height="41.6667" rx="4.5977" transform="matrix(1 0 0 -1 209.333 867.735)" stroke="#F0F0F0" stroke-width="0.431035"/>
<rect width="41.6667" height="41.6667" rx="4.5977" transform="matrix(1 0 0 -1 584 867.735)" stroke="#F0F0F0" stroke-width="0.431035"/>
<rect width="41.6667" height="41.6667" rx="4.5977" transform="matrix(1 0 0 -1 625.667 867.735)" stroke="#F0F0F0" stroke-width="0.431035"/>
<rect width="41.6667" height="41.6667" rx="4.5977" transform="matrix(1 0 0 -1 667.333 867.735)" stroke="#F0F0F0" stroke-width="0.431035"/>
<rect width="41.6667" height="41.6667" rx="4.5977" transform="matrix(1 0 0 -1 709 867.735)" stroke="#F0F0F0" stroke-width="0.431035"/>
<rect width="41.6667" height="41.6667" rx="4.5977" transform="matrix(1 0 0 -1 750.667 867.735)" stroke="#F0F0F0" stroke-width="0.431035"/>
<rect width="41.6667" height="41.6667" rx="4.5977" transform="matrix(1 0 0 -1 792.333 867.735)" stroke="#F0F0F0" stroke-width="0.431035"/>
<rect width="41.6667" height="41.6667" rx="4.5977" transform="matrix(-1 0 0 1 625.885 92)" stroke="#F0F0F0" stroke-width="0.431035"/>
<rect width="41.6667" height="41.6667" rx="4.5977" transform="matrix(-1 0 0 1 584.218 92)" stroke="#F0F0F0" stroke-width="0.431035"/>
<rect width="41.6667" height="41.6667" rx="4.5977" transform="matrix(-1 0 0 1 542.552 92)" stroke="#F0F0F0" stroke-width="0.431035"/>
<rect width="41.6667" height="41.6667" rx="4.5977" transform="matrix(-1 0 0 1 500.885 92)" stroke="#F0F0F0" stroke-width="0.431035"/>
<rect width="41.6667" height="41.6667" rx="4.5977" transform="matrix(-1 0 0 1 459.218 92)" stroke="#F0F0F0" stroke-width="0.431035"/>
<rect width="41.6667" height="41.6667" rx="4.5977" transform="matrix(-1 0 0 1 417.552 92)" stroke="#F0F0F0" stroke-width="0.431035"/>
<rect width="41.6667" height="41.6667" rx="4.5977" transform="matrix(-1 0 0 1 1208.89 92)" stroke="#F0F0F0" stroke-width="0.431035"/>
<rect width="41.6667" height="41.6667" rx="4.5977" transform="matrix(-1 0 0 1 1167.22 92)" stroke="#F0F0F0" stroke-width="0.431035"/>
<rect width="41.6667" height="41.6667" rx="4.5977" transform="matrix(-1 0 0 1 1125.55 92)" stroke="#F0F0F0" stroke-width="0.431035"/>
<rect width="41.6667" height="41.6667" rx="4.5977" transform="matrix(-1 0 0 1 1083.89 92)" stroke="#F0F0F0" stroke-width="0.431035"/>
<rect width="41.6667" height="41.6667" rx="4.5977" transform="matrix(-1 0 0 1 1042.22 92)" stroke="#F0F0F0" stroke-width="0.431035"/>
<rect width="41.6667" height="41.6667" rx="4.5977" transform="matrix(-1 0 0 1 1000.55 92)" stroke="#F0F0F0" stroke-width="0.431035"/>
<rect x="625.885" y="867.735" width="41.6667" height="41.6667" rx="4.5977" transform="rotate(-180 625.885 867.735)" stroke="#F0F0F0" stroke-width="0.431035"/>
<rect x="584.218" y="867.735" width="41.6667" height="41.6667" rx="4.5977" transform="rotate(-180 584.218 867.735)" stroke="#F0F0F0" stroke-width="0.431035"/>
<rect x="542.552" y="867.735" width="41.6667" height="41.6667" rx="4.5977" transform="rotate(-180 542.552 867.735)" stroke="#F0F0F0" stroke-width="0.431035"/>
<rect x="500.885" y="867.735" width="41.6667" height="41.6667" rx="4.5977" transform="rotate(-180 500.885 867.735)" stroke="#F0F0F0" stroke-width="0.431035"/>
<rect x="459.218" y="867.735" width="41.6667" height="41.6667" rx="4.5977" transform="rotate(-180 459.218 867.735)" stroke="#F0F0F0" stroke-width="0.431035"/>
<rect x="417.552" y="867.735" width="41.6667" height="41.6667" rx="4.5977" transform="rotate(-180 417.552 867.735)" stroke="#F0F0F0" stroke-width="0.431035"/>
<rect x="1208.89" y="867.735" width="41.6667" height="41.6667" rx="4.5977" transform="rotate(180 1208.89 867.735)" stroke="#F0F0F0" stroke-width="0.431035"/>
<rect x="1167.22" y="867.735" width="41.6667" height="41.6667" rx="4.5977" transform="rotate(180 1167.22 867.735)" stroke="#F0F0F0" stroke-width="0.431035"/>
<rect x="1125.55" y="867.735" width="41.6667" height="41.6667" rx="4.5977" transform="rotate(180 1125.55 867.735)" stroke="#F0F0F0" stroke-width="0.431035"/>
<rect x="1083.89" y="867.735" width="41.6667" height="41.6667" rx="4.5977" transform="rotate(180 1083.89 867.735)" stroke="#F0F0F0" stroke-width="0.431035"/>
<rect x="1042.22" y="867.735" width="41.6667" height="41.6667" rx="4.5977" transform="rotate(180 1042.22 867.735)" stroke="#F0F0F0" stroke-width="0.431035"/>
<rect x="1000.55" y="867.735" width="41.6667" height="41.6667" rx="4.5977" transform="rotate(180 1000.55 867.735)" stroke="#F0F0F0" stroke-width="0.431035"/>
<rect x="1" y="133.667" width="41.6667" height="41.6667" rx="4.5977" stroke="#F0F0F0" stroke-width="0.431035"/>
<rect x="42.6667" y="133.667" width="41.6667" height="41.6667" rx="4.5977" stroke="#F0F0F0" stroke-width="0.431035"/>
<rect x="84.3333" y="133.667" width="41.6667" height="41.6667" rx="4.5977" stroke="#F0F0F0" stroke-width="0.431035"/>
<rect x="126" y="133.667" width="41.6667" height="41.6667" rx="4.5977" stroke="#F0F0F0" stroke-width="0.431035"/>
<rect x="167.667" y="133.667" width="41.6667" height="41.6667" rx="4.5977" stroke="#F0F0F0" stroke-width="0.431035"/>
<rect x="209.333" y="133.667" width="41.6667" height="41.6667" rx="4.5977" stroke="#F0F0F0" stroke-width="0.431035"/>
<rect x="584" y="133.667" width="41.6667" height="41.6667" rx="4.5977" stroke="#F0F0F0" stroke-width="0.431035"/>
<rect x="625.667" y="133.667" width="41.6667" height="41.6667" rx="4.5977" stroke="#F0F0F0" stroke-width="0.431035"/>
<rect x="667.333" y="133.667" width="41.6667" height="41.6667" rx="4.5977" stroke="#F0F0F0" stroke-width="0.431035"/>
<rect x="709" y="133.667" width="41.6667" height="41.6667" rx="4.5977" stroke="#F0F0F0" stroke-width="0.431035"/>
<rect x="750.667" y="133.667" width="41.6667" height="41.6667" rx="4.5977" stroke="#F0F0F0" stroke-width="0.431035"/>
<rect x="792.333" y="133.667" width="41.6667" height="41.6667" rx="4.5977" stroke="#F0F0F0" stroke-width="0.431035"/>
<rect width="41.6667" height="41.6667" rx="4.5977" transform="matrix(1 0 0 -1 1 826.069)" stroke="#F0F0F0" stroke-width="0.431035"/>
<rect width="41.6667" height="41.6667" rx="4.5977" transform="matrix(1 0 0 -1 42.6667 826.069)" stroke="#F0F0F0" stroke-width="0.431035"/>
<rect width="41.6667" height="41.6667" rx="4.5977" transform="matrix(1 0 0 -1 84.3333 826.069)" stroke="#F0F0F0" stroke-width="0.431035"/>
<rect width="41.6667" height="41.6667" rx="4.5977" transform="matrix(1 0 0 -1 126 826.069)" stroke="#F0F0F0" stroke-width="0.431035"/>
<rect width="41.6667" height="41.6667" rx="4.5977" transform="matrix(1 0 0 -1 167.667 826.069)" stroke="#F0F0F0" stroke-width="0.431035"/>
<rect width="41.6667" height="41.6667" rx="4.5977" transform="matrix(1 0 0 -1 209.333 826.069)" stroke="#F0F0F0" stroke-width="0.431035"/>
<rect width="41.6667" height="41.6667" rx="4.5977" transform="matrix(1 0 0 -1 584 826.069)" stroke="#F0F0F0" stroke-width="0.431035"/>
<rect width="41.6667" height="41.6667" rx="4.5977" transform="matrix(1 0 0 -1 625.667 826.069)" stroke="#F0F0F0" stroke-width="0.431035"/>
<rect width="41.6667" height="41.6667" rx="4.5977" transform="matrix(1 0 0 -1 667.333 826.069)" stroke="#F0F0F0" stroke-width="0.431035"/>
<rect width="41.6667" height="41.6667" rx="4.5977" transform="matrix(1 0 0 -1 709 826.069)" stroke="#F0F0F0" stroke-width="0.431035"/>
<rect width="41.6667" height="41.6667" rx="4.5977" transform="matrix(1 0 0 -1 750.667 826.069)" stroke="#F0F0F0" stroke-width="0.431035"/>
<rect width="41.6667" height="41.6667" rx="4.5977" transform="matrix(1 0 0 -1 792.333 826.069)" stroke="#F0F0F0" stroke-width="0.431035"/>
<rect width="41.6667" height="41.6667" rx="4.5977" transform="matrix(-1 0 0 1 625.885 133.667)" stroke="#F0F0F0" stroke-width="0.431035"/>
<rect width="41.6667" height="41.6667" rx="4.5977" transform="matrix(-1 0 0 1 584.218 133.667)" stroke="#F0F0F0" stroke-width="0.431035"/>
<rect width="41.6667" height="41.6667" rx="4.5977" transform="matrix(-1 0 0 1 542.552 133.667)" stroke="#F0F0F0" stroke-width="0.431035"/>
<rect width="41.6667" height="41.6667" rx="4.5977" transform="matrix(-1 0 0 1 500.885 133.667)" stroke="#F0F0F0" stroke-width="0.431035"/>
<rect width="41.6667" height="41.6667" rx="4.5977" transform="matrix(-1 0 0 1 459.218 133.667)" stroke="#F0F0F0" stroke-width="0.431035"/>
<rect width="41.6667" height="41.6667" rx="4.5977" transform="matrix(-1 0 0 1 417.552 133.667)" stroke="#F0F0F0" stroke-width="0.431035"/>
<rect width="41.6667" height="41.6667" rx="4.5977" transform="matrix(-1 0 0 1 1208.89 133.667)" stroke="#F0F0F0" stroke-width="0.431035"/>
<rect width="41.6667" height="41.6667" rx="4.5977" transform="matrix(-1 0 0 1 1167.22 133.667)" stroke="#F0F0F0" stroke-width="0.431035"/>
<rect width="41.6667" height="41.6667" rx="4.5977" transform="matrix(-1 0 0 1 1125.55 133.667)" stroke="#F0F0F0" stroke-width="0.431035"/>
<rect width="41.6667" height="41.6667" rx="4.5977" transform="matrix(-1 0 0 1 1083.89 133.667)" stroke="#F0F0F0" stroke-width="0.431035"/>
<rect width="41.6667" height="41.6667" rx="4.5977" transform="matrix(-1 0 0 1 1042.22 133.667)" stroke="#F0F0F0" stroke-width="0.431035"/>
<rect width="41.6667" height="41.6667" rx="4.5977" transform="matrix(-1 0 0 1 1000.55 133.667)" stroke="#F0F0F0" stroke-width="0.431035"/>
<rect x="625.885" y="826.069" width="41.6667" height="41.6667" rx="4.5977" transform="rotate(-180 625.885 826.069)" stroke="#F0F0F0" stroke-width="0.431035"/>
<rect x="584.218" y="826.069" width="41.6667" height="41.6667" rx="4.5977" transform="rotate(-180 584.218 826.069)" stroke="#F0F0F0" stroke-width="0.431035"/>
<rect x="542.552" y="826.069" width="41.6667" height="41.6667" rx="4.5977" transform="rotate(-180 542.552 826.069)" stroke="#F0F0F0" stroke-width="0.431035"/>
<rect x="500.885" y="826.069" width="41.6667" height="41.6667" rx="4.5977" transform="rotate(-180 500.885 826.069)" stroke="#F0F0F0" stroke-width="0.431035"/>
<rect x="459.218" y="826.069" width="41.6667" height="41.6667" rx="4.5977" transform="rotate(-180 459.218 826.069)" stroke="#F0F0F0" stroke-width="0.431035"/>
<rect x="417.552" y="826.069" width="41.6667" height="41.6667" rx="4.5977" transform="rotate(-180 417.552 826.069)" stroke="#F0F0F0" stroke-width="0.431035"/>
<rect x="1208.89" y="826.069" width="41.6667" height="41.6667" rx="4.5977" transform="rotate(180 1208.89 826.069)" stroke="#F0F0F0" stroke-width="0.431035"/>
<rect x="1167.22" y="826.069" width="41.6667" height="41.6667" rx="4.5977" transform="rotate(180 1167.22 826.069)" stroke="#F0F0F0" stroke-width="0.431035"/>
<rect x="1125.55" y="826.069" width="41.6667" height="41.6667" rx="4.5977" transform="rotate(180 1125.55 826.069)" stroke="#F0F0F0" stroke-width="0.431035"/>
<rect x="1083.89" y="826.069" width="41.6667" height="41.6667" rx="4.5977" transform="rotate(180 1083.89 826.069)" stroke="#F0F0F0" stroke-width="0.431035"/>
<rect x="1042.22" y="826.069" width="41.6667" height="41.6667" rx="4.5977" transform="rotate(180 1042.22 826.069)" stroke="#F0F0F0" stroke-width="0.431035"/>
<rect x="1000.55" y="826.069" width="41.6667" height="41.6667" rx="4.5977" transform="rotate(180 1000.55 826.069)" stroke="#F0F0F0" stroke-width="0.431035"/>
<rect x="1" y="175.333" width="41.6667" height="41.6667" rx="4.5977" stroke="#F0F0F0" stroke-width="0.431035"/>
<rect x="42.6667" y="175.333" width="41.6667" height="41.6667" rx="4.5977" stroke="#F0F0F0" stroke-width="0.431035"/>
<rect x="84.3333" y="175.333" width="41.6667" height="41.6667" rx="4.5977" stroke="#F0F0F0" stroke-width="0.431035"/>
<rect x="126" y="175.333" width="41.6667" height="41.6667" rx="4.5977" stroke="#F0F0F0" stroke-width="0.431035"/>
<rect x="167.667" y="175.333" width="41.6667" height="41.6667" rx="4.5977" stroke="#F0F0F0" stroke-width="0.431035"/>
<rect x="209.333" y="175.333" width="41.6667" height="41.6667" rx="4.5977" stroke="#F0F0F0" stroke-width="0.431035"/>
<rect x="584" y="175.333" width="41.6667" height="41.6667" rx="4.5977" stroke="#F0F0F0" stroke-width="0.431035"/>
<rect x="625.667" y="175.333" width="41.6667" height="41.6667" rx="4.5977" stroke="#F0F0F0" stroke-width="0.431035"/>
<rect x="667.333" y="175.333" width="41.6667" height="41.6667" rx="4.5977" stroke="#F0F0F0" stroke-width="0.431035"/>
<rect x="709" y="175.333" width="41.6667" height="41.6667" rx="4.5977" stroke="#F0F0F0" stroke-width="0.431035"/>
<rect x="750.667" y="175.333" width="41.6667" height="41.6667" rx="4.5977" stroke="#F0F0F0" stroke-width="0.431035"/>
<rect x="792.333" y="175.333" width="41.6667" height="41.6667" rx="4.5977" stroke="#F0F0F0" stroke-width="0.431035"/>
<rect width="41.6667" height="41.6667" rx="4.5977" transform="matrix(1 0 0 -1 1 784.402)" stroke="#F0F0F0" stroke-width="0.431035"/>
<rect width="41.6667" height="41.6667" rx="4.5977" transform="matrix(1 0 0 -1 42.6667 784.402)" stroke="#F0F0F0" stroke-width="0.431035"/>
<rect width="41.6667" height="41.6667" rx="4.5977" transform="matrix(1 0 0 -1 84.3333 784.402)" stroke="#F0F0F0" stroke-width="0.431035"/>
<rect width="41.6667" height="41.6667" rx="4.5977" transform="matrix(1 0 0 -1 126 784.402)" stroke="#F0F0F0" stroke-width="0.431035"/>
<rect width="41.6667" height="41.6667" rx="4.5977" transform="matrix(1 0 0 -1 167.667 784.402)" stroke="#F0F0F0" stroke-width="0.431035"/>
<rect width="41.6667" height="41.6667" rx="4.5977" transform="matrix(1 0 0 -1 209.333 784.402)" stroke="#F0F0F0" stroke-width="0.431035"/>
<rect width="41.6667" height="41.6667" rx="4.5977" transform="matrix(1 0 0 -1 584 784.402)" stroke="#F0F0F0" stroke-width="0.431035"/>
<rect width="41.6667" height="41.6667" rx="4.5977" transform="matrix(1 0 0 -1 625.667 784.402)" stroke="#F0F0F0" stroke-width="0.431035"/>
<rect width="41.6667" height="41.6667" rx="4.5977" transform="matrix(1 0 0 -1 667.333 784.402)" stroke="#F0F0F0" stroke-width="0.431035"/>
<rect width="41.6667" height="41.6667" rx="4.5977" transform="matrix(1 0 0 -1 709 784.402)" stroke="#F0F0F0" stroke-width="0.431035"/>
<rect width="41.6667" height="41.6667" rx="4.5977" transform="matrix(1 0 0 -1 750.667 784.402)" stroke="#F0F0F0" stroke-width="0.431035"/>
<rect width="41.6667" height="41.6667" rx="4.5977" transform="matrix(1 0 0 -1 792.333 784.402)" stroke="#F0F0F0" stroke-width="0.431035"/>
<rect width="41.6667" height="41.6667" rx="4.5977" transform="matrix(-1 0 0 1 625.885 175.333)" stroke="#F0F0F0" stroke-width="0.431035"/>
<rect width="41.6667" height="41.6667" rx="4.5977" transform="matrix(-1 0 0 1 584.218 175.333)" stroke="#F0F0F0" stroke-width="0.431035"/>
<rect width="41.6667" height="41.6667" rx="4.5977" transform="matrix(-1 0 0 1 542.552 175.333)" stroke="#F0F0F0" stroke-width="0.431035"/>
<rect width="41.6667" height="41.6667" rx="4.5977" transform="matrix(-1 0 0 1 500.885 175.333)" stroke="#F0F0F0" stroke-width="0.431035"/>
<rect width="41.6667" height="41.6667" rx="4.5977" transform="matrix(-1 0 0 1 459.218 175.333)" stroke="#F0F0F0" stroke-width="0.431035"/>
<rect width="41.6667" height="41.6667" rx="4.5977" transform="matrix(-1 0 0 1 417.552 175.333)" stroke="#F0F0F0" stroke-width="0.431035"/>
<rect width="41.6667" height="41.6667" rx="4.5977" transform="matrix(-1 0 0 1 1208.89 175.333)" stroke="#F0F0F0" stroke-width="0.431035"/>
<rect width="41.6667" height="41.6667" rx="4.5977" transform="matrix(-1 0 0 1 1167.22 175.333)" stroke="#F0F0F0" stroke-width="0.431035"/>
<rect width="41.6667" height="41.6667" rx="4.5977" transform="matrix(-1 0 0 1 1125.55 175.333)" stroke="#F0F0F0" stroke-width="0.431035"/>
<rect width="41.6667" height="41.6667" rx="4.5977" transform="matrix(-1 0 0 1 1083.89 175.333)" stroke="#F0F0F0" stroke-width="0.431035"/>
<rect width="41.6667" height="41.6667" rx="4.5977" transform="matrix(-1 0 0 1 1042.22 175.333)" stroke="#F0F0F0" stroke-width="0.431035"/>
<rect width="41.6667" height="41.6667" rx="4.5977" transform="matrix(-1 0 0 1 1000.55 175.333)" stroke="#F0F0F0" stroke-width="0.431035"/>
<rect x="625.885" y="784.402" width="41.6667" height="41.6667" rx="4.5977" transform="rotate(-180 625.885 784.402)" stroke="#F0F0F0" stroke-width="0.431035"/>
<rect x="584.218" y="784.402" width="41.6667" height="41.6667" rx="4.5977" transform="rotate(-180 584.218 784.402)" stroke="#F0F0F0" stroke-width="0.431035"/>
<rect x="542.552" y="784.402" width="41.6667" height="41.6667" rx="4.5977" transform="rotate(-180 542.552 784.402)" stroke="#F0F0F0" stroke-width="0.431035"/>
<rect x="500.885" y="784.402" width="41.6667" height="41.6667" rx="4.5977" transform="rotate(-180 500.885 784.402)" stroke="#F0F0F0" stroke-width="0.431035"/>
<rect x="459.218" y="784.402" width="41.6667" height="41.6667" rx="4.5977" transform="rotate(-180 459.218 784.402)" stroke="#F0F0F0" stroke-width="0.431035"/>
<rect x="417.552" y="784.402" width="41.6667" height="41.6667" rx="4.5977" transform="rotate(-180 417.552 784.402)" stroke="#F0F0F0" stroke-width="0.431035"/>
<rect x="1208.89" y="784.402" width="41.6667" height="41.6667" rx="4.5977" transform="rotate(180 1208.89 784.402)" stroke="#F0F0F0" stroke-width="0.431035"/>
<rect x="1167.22" y="784.402" width="41.6667" height="41.6667" rx="4.5977" transform="rotate(180 1167.22 784.402)" stroke="#F0F0F0" stroke-width="0.431035"/>
<rect x="1125.55" y="784.402" width="41.6667" height="41.6667" rx="4.5977" transform="rotate(180 1125.55 784.402)" stroke="#F0F0F0" stroke-width="0.431035"/>
<rect x="1083.89" y="784.402" width="41.6667" height="41.6667" rx="4.5977" transform="rotate(180 1083.89 784.402)" stroke="#F0F0F0" stroke-width="0.431035"/>
<rect x="1042.22" y="784.402" width="41.6667" height="41.6667" rx="4.5977" transform="rotate(180 1042.22 784.402)" stroke="#F0F0F0" stroke-width="0.431035"/>
<rect x="1000.55" y="784.402" width="41.6667" height="41.6667" rx="4.5977" transform="rotate(180 1000.55 784.402)" stroke="#F0F0F0" stroke-width="0.431035"/>
<rect x="1" y="217" width="41.6667" height="41.6667" rx="4.5977" stroke="#F0F0F0" stroke-width="0.431035"/>
<rect x="42.6667" y="217" width="41.6667" height="41.6667" rx="4.5977" stroke="#F0F0F0" stroke-width="0.431035"/>
<rect x="84.3333" y="217" width="41.6667" height="41.6667" rx="4.5977" stroke="#F0F0F0" stroke-width="0.431035"/>
<rect x="126" y="217" width="41.6667" height="41.6667" rx="4.5977" stroke="#F0F0F0" stroke-width="0.431035"/>
<rect x="167.667" y="217" width="41.6667" height="41.6667" rx="4.5977" stroke="#F0F0F0" stroke-width="0.431035"/>
<rect x="209.333" y="217" width="41.6667" height="41.6667" rx="4.5977" stroke="#F0F0F0" stroke-width="0.431035"/>
<rect x="584" y="217" width="41.6667" height="41.6667" rx="4.5977" stroke="#F0F0F0" stroke-width="0.431035"/>
<rect x="625.667" y="217" width="41.6667" height="41.6667" rx="4.5977" stroke="#F0F0F0" stroke-width="0.431035"/>
<rect x="667.333" y="217" width="41.6667" height="41.6667" rx="4.5977" stroke="#F0F0F0" stroke-width="0.431035"/>
<rect x="709" y="217" width="41.6667" height="41.6667" rx="4.5977" stroke="#F0F0F0" stroke-width="0.431035"/>
<rect x="750.667" y="217" width="41.6667" height="41.6667" rx="4.5977" stroke="#F0F0F0" stroke-width="0.431035"/>
<rect x="792.333" y="217" width="41.6667" height="41.6667" rx="4.5977" stroke="#F0F0F0" stroke-width="0.431035"/>
<rect width="41.6667" height="41.6667" rx="4.5977" transform="matrix(1 0 0 -1 1 742.735)" stroke="#F0F0F0" stroke-width="0.431035"/>
<rect width="41.6667" height="41.6667" rx="4.5977" transform="matrix(1 0 0 -1 42.6667 742.735)" stroke="#F0F0F0" stroke-width="0.431035"/>
<rect width="41.6667" height="41.6667" rx="4.5977" transform="matrix(1 0 0 -1 84.3333 742.735)" stroke="#F0F0F0" stroke-width="0.431035"/>
<rect width="41.6667" height="41.6667" rx="4.5977" transform="matrix(1 0 0 -1 126 742.735)" stroke="#F0F0F0" stroke-width="0.431035"/>
<rect width="41.6667" height="41.6667" rx="4.5977" transform="matrix(1 0 0 -1 167.667 742.735)" stroke="#F0F0F0" stroke-width="0.431035"/>
<rect width="41.6667" height="41.6667" rx="4.5977" transform="matrix(1 0 0 -1 209.333 742.735)" stroke="#F0F0F0" stroke-width="0.431035"/>
<rect width="41.6667" height="41.6667" rx="4.5977" transform="matrix(1 0 0 -1 584 742.735)" stroke="#F0F0F0" stroke-width="0.431035"/>
<rect width="41.6667" height="41.6667" rx="4.5977" transform="matrix(1 0 0 -1 625.667 742.735)" stroke="#F0F0F0" stroke-width="0.431035"/>
<rect width="41.6667" height="41.6667" rx="4.5977" transform="matrix(1 0 0 -1 667.333 742.735)" stroke="#F0F0F0" stroke-width="0.431035"/>
<rect width="41.6667" height="41.6667" rx="4.5977" transform="matrix(1 0 0 -1 709 742.735)" stroke="#F0F0F0" stroke-width="0.431035"/>
<rect width="41.6667" height="41.6667" rx="4.5977" transform="matrix(1 0 0 -1 750.667 742.735)" stroke="#F0F0F0" stroke-width="0.431035"/>
<rect width="41.6667" height="41.6667" rx="4.5977" transform="matrix(1 0 0 -1 792.333 742.735)" stroke="#F0F0F0" stroke-width="0.431035"/>
<rect width="41.6667" height="41.6667" rx="4.5977" transform="matrix(-1 0 0 1 625.885 217)" stroke="#F0F0F0" stroke-width="0.431035"/>
<rect width="41.6667" height="41.6667" rx="4.5977" transform="matrix(-1 0 0 1 584.218 217)" stroke="#F0F0F0" stroke-width="0.431035"/>
<rect width="41.6667" height="41.6667" rx="4.5977" transform="matrix(-1 0 0 1 542.552 217)" stroke="#F0F0F0" stroke-width="0.431035"/>
<rect width="41.6667" height="41.6667" rx="4.5977" transform="matrix(-1 0 0 1 500.885 217)" stroke="#F0F0F0" stroke-width="0.431035"/>
<rect width="41.6667" height="41.6667" rx="4.5977" transform="matrix(-1 0 0 1 459.218 217)" stroke="#F0F0F0" stroke-width="0.431035"/>
<rect width="41.6667" height="41.6667" rx="4.5977" transform="matrix(-1 0 0 1 417.552 217)" stroke="#F0F0F0" stroke-width="0.431035"/>
<rect width="41.6667" height="41.6667" rx="4.5977" transform="matrix(-1 0 0 1 1208.89 217)" stroke="#F0F0F0" stroke-width="0.431035"/>
<rect width="41.6667" height="41.6667" rx="4.5977" transform="matrix(-1 0 0 1 1167.22 217)" stroke="#F0F0F0" stroke-width="0.431035"/>
<rect width="41.6667" height="41.6667" rx="4.5977" transform="matrix(-1 0 0 1 1125.55 217)" stroke="#F0F0F0" stroke-width="0.431035"/>
<rect width="41.6667" height="41.6667" rx="4.5977" transform="matrix(-1 0 0 1 1083.89 217)" stroke="#F0F0F0" stroke-width="0.431035"/>
<rect width="41.6667" height="41.6667" rx="4.5977" transform="matrix(-1 0 0 1 1042.22 217)" stroke="#F0F0F0" stroke-width="0.431035"/>
<rect width="41.6667" height="41.6667" rx="4.5977" transform="matrix(-1 0 0 1 1000.55 217)" stroke="#F0F0F0" stroke-width="0.431035"/>
<rect x="625.885" y="742.735" width="41.6667" height="41.6667" rx="4.5977" transform="rotate(-180 625.885 742.735)" stroke="#F0F0F0" stroke-width="0.431035"/>
<rect x="584.218" y="742.735" width="41.6667" height="41.6667" rx="4.5977" transform="rotate(-180 584.218 742.735)" stroke="#F0F0F0" stroke-width="0.431035"/>
<rect x="542.552" y="742.735" width="41.6667" height="41.6667" rx="4.5977" transform="rotate(-180 542.552 742.735)" stroke="#F0F0F0" stroke-width="0.431035"/>
<rect x="500.885" y="742.735" width="41.6667" height="41.6667" rx="4.5977" transform="rotate(-180 500.885 742.735)" stroke="#F0F0F0" stroke-width="0.431035"/>
<rect x="459.218" y="742.735" width="41.6667" height="41.6667" rx="4.5977" transform="rotate(-180 459.218 742.735)" stroke="#F0F0F0" stroke-width="0.431035"/>
<rect x="417.552" y="742.735" width="41.6667" height="41.6667" rx="4.5977" transform="rotate(-180 417.552 742.735)" stroke="#F0F0F0" stroke-width="0.431035"/>
<rect x="1208.89" y="742.735" width="41.6667" height="41.6667" rx="4.5977" transform="rotate(180 1208.89 742.735)" stroke="#F0F0F0" stroke-width="0.431035"/>
<rect x="1167.22" y="742.735" width="41.6667" height="41.6667" rx="4.5977" transform="rotate(180 1167.22 742.735)" stroke="#F0F0F0" stroke-width="0.431035"/>
<rect x="1125.55" y="742.735" width="41.6667" height="41.6667" rx="4.5977" transform="rotate(180 1125.55 742.735)" stroke="#F0F0F0" stroke-width="0.431035"/>
<rect x="1083.89" y="742.735" width="41.6667" height="41.6667" rx="4.5977" transform="rotate(180 1083.89 742.735)" stroke="#F0F0F0" stroke-width="0.431035"/>
<rect x="1042.22" y="742.735" width="41.6667" height="41.6667" rx="4.5977" transform="rotate(180 1042.22 742.735)" stroke="#F0F0F0" stroke-width="0.431035"/>
<rect x="1000.55" y="742.735" width="41.6667" height="41.6667" rx="4.5977" transform="rotate(180 1000.55 742.735)" stroke="#F0F0F0" stroke-width="0.431035"/>
<rect x="1" y="258.667" width="41.6667" height="41.6667" rx="4.5977" stroke="#F0F0F0" stroke-width="0.431035"/>
<rect x="42.6667" y="258.667" width="41.6667" height="41.6667" rx="4.5977" stroke="#F0F0F0" stroke-width="0.431035"/>
<rect x="84.3333" y="258.667" width="41.6667" height="41.6667" rx="4.5977" stroke="#F0F0F0" stroke-width="0.431035"/>
<rect x="126" y="258.667" width="41.6667" height="41.6667" rx="4.5977" stroke="#F0F0F0" stroke-width="0.431035"/>
<rect x="167.667" y="258.667" width="41.6667" height="41.6667" rx="4.5977" stroke="#F0F0F0" stroke-width="0.431035"/>
<rect x="209.333" y="258.667" width="41.6667" height="41.6667" rx="4.5977" stroke="#F0F0F0" stroke-width="0.431035"/>
<rect x="584" y="258.667" width="41.6667" height="41.6667" rx="4.5977" stroke="#F0F0F0" stroke-width="0.431035"/>
<rect x="625.667" y="258.667" width="41.6667" height="41.6667" rx="4.5977" stroke="#F0F0F0" stroke-width="0.431035"/>
<rect x="667.333" y="258.667" width="41.6667" height="41.6667" rx="4.5977" stroke="#F0F0F0" stroke-width="0.431035"/>
<rect x="709" y="258.667" width="41.6667" height="41.6667" rx="4.5977" stroke="#F0F0F0" stroke-width="0.431035"/>
<rect x="750.667" y="258.667" width="41.6667" height="41.6667" rx="4.5977" stroke="#F0F0F0" stroke-width="0.431035"/>
<rect x="792.333" y="258.667" width="41.6667" height="41.6667" rx="4.5977" stroke="#F0F0F0" stroke-width="0.431035"/>
<rect width="41.6667" height="41.6667" rx="4.5977" transform="matrix(1 0 0 -1 1 701.069)" stroke="#F0F0F0" stroke-width="0.431035"/>
<rect width="41.6667" height="41.6667" rx="4.5977" transform="matrix(1 0 0 -1 42.6667 701.069)" stroke="#F0F0F0" stroke-width="0.431035"/>
<rect width="41.6667" height="41.6667" rx="4.5977" transform="matrix(1 0 0 -1 84.3333 701.069)" stroke="#F0F0F0" stroke-width="0.431035"/>
<rect width="41.6667" height="41.6667" rx="4.5977" transform="matrix(1 0 0 -1 126 701.069)" stroke="#F0F0F0" stroke-width="0.431035"/>
<rect width="41.6667" height="41.6667" rx="4.5977" transform="matrix(1 0 0 -1 167.667 701.069)" stroke="#F0F0F0" stroke-width="0.431035"/>
<rect width="41.6667" height="41.6667" rx="4.5977" transform="matrix(1 0 0 -1 209.333 701.069)" stroke="#F0F0F0" stroke-width="0.431035"/>
<rect width="41.6667" height="41.6667" rx="4.5977" transform="matrix(1 0 0 -1 584 701.069)" stroke="#F0F0F0" stroke-width="0.431035"/>
<rect width="41.6667" height="41.6667" rx="4.5977" transform="matrix(1 0 0 -1 625.667 701.069)" stroke="#F0F0F0" stroke-width="0.431035"/>
<rect width="41.6667" height="41.6667" rx="4.5977" transform="matrix(1 0 0 -1 667.333 701.069)" stroke="#F0F0F0" stroke-width="0.431035"/>
<rect width="41.6667" height="41.6667" rx="4.5977" transform="matrix(1 0 0 -1 709 701.069)" stroke="#F0F0F0" stroke-width="0.431035"/>
<rect width="41.6667" height="41.6667" rx="4.5977" transform="matrix(1 0 0 -1 750.667 701.069)" stroke="#F0F0F0" stroke-width="0.431035"/>
<rect width="41.6667" height="41.6667" rx="4.5977" transform="matrix(1 0 0 -1 792.333 701.069)" stroke="#F0F0F0" stroke-width="0.431035"/>
<rect width="41.6667" height="41.6667" rx="4.5977" transform="matrix(-1 0 0 1 625.885 258.667)" stroke="#F0F0F0" stroke-width="0.431035"/>
<rect width="41.6667" height="41.6667" rx="4.5977" transform="matrix(-1 0 0 1 584.218 258.667)" stroke="#F0F0F0" stroke-width="0.431035"/>
<rect width="41.6667" height="41.6667" rx="4.5977" transform="matrix(-1 0 0 1 542.552 258.667)" stroke="#F0F0F0" stroke-width="0.431035"/>
<rect width="41.6667" height="41.6667" rx="4.5977" transform="matrix(-1 0 0 1 500.885 258.667)" stroke="#F0F0F0" stroke-width="0.431035"/>
<rect width="41.6667" height="41.6667" rx="4.5977" transform="matrix(-1 0 0 1 459.218 258.667)" stroke="#F0F0F0" stroke-width="0.431035"/>
<rect width="41.6667" height="41.6667" rx="4.5977" transform="matrix(-1 0 0 1 417.552 258.667)" stroke="#F0F0F0" stroke-width="0.431035"/>
<rect width="41.6667" height="41.6667" rx="4.5977" transform="matrix(-1 0 0 1 1208.89 258.667)" stroke="#F0F0F0" stroke-width="0.431035"/>
<rect width="41.6667" height="41.6667" rx="4.5977" transform="matrix(-1 0 0 1 1167.22 258.667)" stroke="#F0F0F0" stroke-width="0.431035"/>
<rect width="41.6667" height="41.6667" rx="4.5977" transform="matrix(-1 0 0 1 1125.55 258.667)" stroke="#F0F0F0" stroke-width="0.431035"/>
<rect width="41.6667" height="41.6667" rx="4.5977" transform="matrix(-1 0 0 1 1083.89 258.667)" stroke="#F0F0F0" stroke-width="0.431035"/>
<rect width="41.6667" height="41.6667" rx="4.5977" transform="matrix(-1 0 0 1 1042.22 258.667)" stroke="#F0F0F0" stroke-width="0.431035"/>
<rect width="41.6667" height="41.6667" rx="4.5977" transform="matrix(-1 0 0 1 1000.55 258.667)" stroke="#F0F0F0" stroke-width="0.431035"/>
<rect x="625.885" y="701.069" width="41.6667" height="41.6667" rx="4.5977" transform="rotate(-180 625.885 701.069)" stroke="#F0F0F0" stroke-width="0.431035"/>
<rect x="584.218" y="701.069" width="41.6667" height="41.6667" rx="4.5977" transform="rotate(-180 584.218 701.069)" stroke="#F0F0F0" stroke-width="0.431035"/>
<rect x="542.552" y="701.069" width="41.6667" height="41.6667" rx="4.5977" transform="rotate(-180 542.552 701.069)" stroke="#F0F0F0" stroke-width="0.431035"/>
<rect x="500.885" y="701.069" width="41.6667" height="41.6667" rx="4.5977" transform="rotate(-180 500.885 701.069)" stroke="#F0F0F0" stroke-width="0.431035"/>
<rect x="459.218" y="701.069" width="41.6667" height="41.6667" rx="4.5977" transform="rotate(-180 459.218 701.069)" stroke="#F0F0F0" stroke-width="0.431035"/>
<rect x="417.552" y="701.069" width="41.6667" height="41.6667" rx="4.5977" transform="rotate(-180 417.552 701.069)" stroke="#F0F0F0" stroke-width="0.431035"/>
<rect x="1208.89" y="701.069" width="41.6667" height="41.6667" rx="4.5977" transform="rotate(180 1208.89 701.069)" stroke="#F0F0F0" stroke-width="0.431035"/>
<rect x="1167.22" y="701.069" width="41.6667" height="41.6667" rx="4.5977" transform="rotate(180 1167.22 701.069)" stroke="#F0F0F0" stroke-width="0.431035"/>
<rect x="1125.55" y="701.069" width="41.6667" height="41.6667" rx="4.5977" transform="rotate(180 1125.55 701.069)" stroke="#F0F0F0" stroke-width="0.431035"/>
<rect x="1083.89" y="701.069" width="41.6667" height="41.6667" rx="4.5977" transform="rotate(180 1083.89 701.069)" stroke="#F0F0F0" stroke-width="0.431035"/>
<rect x="1042.22" y="701.069" width="41.6667" height="41.6667" rx="4.5977" transform="rotate(180 1042.22 701.069)" stroke="#F0F0F0" stroke-width="0.431035"/>
<rect x="1000.55" y="701.069" width="41.6667" height="41.6667" rx="4.5977" transform="rotate(180 1000.55 701.069)" stroke="#F0F0F0" stroke-width="0.431035"/>
<rect x="1" y="300.333" width="41.6667" height="41.6667" rx="4.5977" stroke="#F0F0F0" stroke-width="0.431035"/>
<rect x="42.6667" y="300.333" width="41.6667" height="41.6667" rx="4.5977" stroke="#F0F0F0" stroke-width="0.431035"/>
<rect x="84.3333" y="300.333" width="41.6667" height="41.6667" rx="4.5977" stroke="#F0F0F0" stroke-width="0.431035"/>
<rect x="126" y="300.333" width="41.6667" height="41.6667" rx="4.5977" stroke="#F0F0F0" stroke-width="0.431035"/>
<rect x="167.667" y="300.333" width="41.6667" height="41.6667" rx="4.5977" stroke="#F0F0F0" stroke-width="0.431035"/>
<rect x="209.333" y="300.333" width="41.6667" height="41.6667" rx="4.5977" stroke="#F0F0F0" stroke-width="0.431035"/>
<rect x="584" y="300.333" width="41.6667" height="41.6667" rx="4.5977" stroke="#F0F0F0" stroke-width="0.431035"/>
<rect x="625.667" y="300.333" width="41.6667" height="41.6667" rx="4.5977" stroke="#F0F0F0" stroke-width="0.431035"/>
<rect x="667.333" y="300.333" width="41.6667" height="41.6667" rx="4.5977" stroke="#F0F0F0" stroke-width="0.431035"/>
<rect x="709" y="300.333" width="41.6667" height="41.6667" rx="4.5977" stroke="#F0F0F0" stroke-width="0.431035"/>
<rect x="750.667" y="300.333" width="41.6667" height="41.6667" rx="4.5977" stroke="#F0F0F0" stroke-width="0.431035"/>
<rect x="792.333" y="300.333" width="41.6667" height="41.6667" rx="4.5977" stroke="#F0F0F0" stroke-width="0.431035"/>
<rect width="41.6667" height="41.6667" rx="4.5977" transform="matrix(1 0 0 -1 1 659.402)" stroke="#F0F0F0" stroke-width="0.431035"/>
<rect width="41.6667" height="41.6667" rx="4.5977" transform="matrix(1 0 0 -1 42.6667 659.402)" stroke="#F0F0F0" stroke-width="0.431035"/>
<rect width="41.6667" height="41.6667" rx="4.5977" transform="matrix(1 0 0 -1 84.3333 659.402)" stroke="#F0F0F0" stroke-width="0.431035"/>
<rect width="41.6667" height="41.6667" rx="4.5977" transform="matrix(1 0 0 -1 126 659.402)" stroke="#F0F0F0" stroke-width="0.431035"/>
<rect width="41.6667" height="41.6667" rx="4.5977" transform="matrix(1 0 0 -1 167.667 659.402)" stroke="#F0F0F0" stroke-width="0.431035"/>
<rect width="41.6667" height="41.6667" rx="4.5977" transform="matrix(1 0 0 -1 209.333 659.402)" stroke="#F0F0F0" stroke-width="0.431035"/>
<rect width="41.6667" height="41.6667" rx="4.5977" transform="matrix(1 0 0 -1 584 659.402)" stroke="#F0F0F0" stroke-width="0.431035"/>
<rect width="41.6667" height="41.6667" rx="4.5977" transform="matrix(1 0 0 -1 625.667 659.402)" stroke="#F0F0F0" stroke-width="0.431035"/>
<rect width="41.6667" height="41.6667" rx="4.5977" transform="matrix(1 0 0 -1 667.333 659.402)" stroke="#F0F0F0" stroke-width="0.431035"/>
<rect width="41.6667" height="41.6667" rx="4.5977" transform="matrix(1 0 0 -1 709 659.402)" stroke="#F0F0F0" stroke-width="0.431035"/>
<rect width="41.6667" height="41.6667" rx="4.5977" transform="matrix(1 0 0 -1 750.667 659.402)" stroke="#F0F0F0" stroke-width="0.431035"/>
<rect width="41.6667" height="41.6667" rx="4.5977" transform="matrix(1 0 0 -1 792.333 659.402)" stroke="#F0F0F0" stroke-width="0.431035"/>
<rect width="41.6667" height="41.6667" rx="4.5977" transform="matrix(-1 0 0 1 625.885 300.333)" stroke="#F0F0F0" stroke-width="0.431035"/>
<rect width="41.6667" height="41.6667" rx="4.5977" transform="matrix(-1 0 0 1 584.218 300.333)" stroke="#F0F0F0" stroke-width="0.431035"/>
<rect width="41.6667" height="41.6667" rx="4.5977" transform="matrix(-1 0 0 1 542.552 300.333)" stroke="#F0F0F0" stroke-width="0.431035"/>
<rect width="41.6667" height="41.6667" rx="4.5977" transform="matrix(-1 0 0 1 500.885 300.333)" stroke="#F0F0F0" stroke-width="0.431035"/>
<rect width="41.6667" height="41.6667" rx="4.5977" transform="matrix(-1 0 0 1 459.218 300.333)" stroke="#F0F0F0" stroke-width="0.431035"/>
<rect width="41.6667" height="41.6667" rx="4.5977" transform="matrix(-1 0 0 1 417.552 300.333)" stroke="#F0F0F0" stroke-width="0.431035"/>
<rect width="41.6667" height="41.6667" rx="4.5977" transform="matrix(-1 0 0 1 1208.89 300.333)" stroke="#F0F0F0" stroke-width="0.431035"/>
<rect width="41.6667" height="41.6667" rx="4.5977" transform="matrix(-1 0 0 1 1167.22 300.333)" stroke="#F0F0F0" stroke-width="0.431035"/>
<rect width="41.6667" height="41.6667" rx="4.5977" transform="matrix(-1 0 0 1 1125.55 300.333)" stroke="#F0F0F0" stroke-width="0.431035"/>
<rect width="41.6667" height="41.6667" rx="4.5977" transform="matrix(-1 0 0 1 1083.89 300.333)" stroke="#F0F0F0" stroke-width="0.431035"/>
<rect width="41.6667" height="41.6667" rx="4.5977" transform="matrix(-1 0 0 1 1042.22 300.333)" stroke="#F0F0F0" stroke-width="0.431035"/>
<rect width="41.6667" height="41.6667" rx="4.5977" transform="matrix(-1 0 0 1 1000.55 300.333)" stroke="#F0F0F0" stroke-width="0.431035"/>
<rect x="625.885" y="659.402" width="41.6667" height="41.6667" rx="4.5977" transform="rotate(-180 625.885 659.402)" stroke="#F0F0F0" stroke-width="0.431035"/>
<rect x="584.218" y="659.402" width="41.6667" height="41.6667" rx="4.5977" transform="rotate(-180 584.218 659.402)" stroke="#F0F0F0" stroke-width="0.431035"/>
<rect x="542.552" y="659.402" width="41.6667" height="41.6667" rx="4.5977" transform="rotate(-180 542.552 659.402)" stroke="#F0F0F0" stroke-width="0.431035"/>
<rect x="500.885" y="659.402" width="41.6667" height="41.6667" rx="4.5977" transform="rotate(-180 500.885 659.402)" stroke="#F0F0F0" stroke-width="0.431035"/>
<rect x="459.218" y="659.402" width="41.6667" height="41.6667" rx="4.5977" transform="rotate(-180 459.218 659.402)" stroke="#F0F0F0" stroke-width="0.431035"/>
<rect x="417.552" y="659.402" width="41.6667" height="41.6667" rx="4.5977" transform="rotate(-180 417.552 659.402)" stroke="#F0F0F0" stroke-width="0.431035"/>
<rect x="1208.89" y="659.402" width="41.6667" height="41.6667" rx="4.5977" transform="rotate(180 1208.89 659.402)" stroke="#F0F0F0" stroke-width="0.431035"/>
<rect x="1167.22" y="659.402" width="41.6667" height="41.6667" rx="4.5977" transform="rotate(180 1167.22 659.402)" stroke="#F0F0F0" stroke-width="0.431035"/>
<rect x="1125.55" y="659.402" width="41.6667" height="41.6667" rx="4.5977" transform="rotate(180 1125.55 659.402)" stroke="#F0F0F0" stroke-width="0.431035"/>
<rect x="1083.89" y="659.402" width="41.6667" height="41.6667" rx="4.5977" transform="rotate(180 1083.89 659.402)" stroke="#F0F0F0" stroke-width="0.431035"/>
<rect x="1042.22" y="659.402" width="41.6667" height="41.6667" rx="4.5977" transform="rotate(180 1042.22 659.402)" stroke="#F0F0F0" stroke-width="0.431035"/>
<rect x="1000.55" y="659.402" width="41.6667" height="41.6667" rx="4.5977" transform="rotate(180 1000.55 659.402)" stroke="#F0F0F0" stroke-width="0.431035"/>
<rect x="1" y="342" width="41.6667" height="41.6667" rx="4.5977" stroke="#F0F0F0" stroke-width="0.431035"/>
<rect x="42.6667" y="342" width="41.6667" height="41.6667" rx="4.5977" stroke="#F0F0F0" stroke-width="0.431035"/>
<rect x="84.3333" y="342" width="41.6667" height="41.6667" rx="4.5977" stroke="#F0F0F0" stroke-width="0.431035"/>
<rect x="126" y="342" width="41.6667" height="41.6667" rx="4.5977" stroke="#F0F0F0" stroke-width="0.431035"/>
<rect x="167.667" y="342" width="41.6667" height="41.6667" rx="4.5977" stroke="#F0F0F0" stroke-width="0.431035"/>
<rect x="209.333" y="342" width="41.6667" height="41.6667" rx="4.5977" stroke="#F0F0F0" stroke-width="0.431035"/>
<rect x="584" y="342" width="41.6667" height="41.6667" rx="4.5977" stroke="#F0F0F0" stroke-width="0.431035"/>
<rect x="625.667" y="342" width="41.6667" height="41.6667" rx="4.5977" stroke="#F0F0F0" stroke-width="0.431035"/>
<rect x="667.333" y="342" width="41.6667" height="41.6667" rx="4.5977" stroke="#F0F0F0" stroke-width="0.431035"/>
<rect x="709" y="342" width="41.6667" height="41.6667" rx="4.5977" stroke="#F0F0F0" stroke-width="0.431035"/>
<rect x="750.667" y="342" width="41.6667" height="41.6667" rx="4.5977" stroke="#F0F0F0" stroke-width="0.431035"/>
<rect x="792.333" y="342" width="41.6667" height="41.6667" rx="4.5977" stroke="#F0F0F0" stroke-width="0.431035"/>
<rect width="41.6667" height="41.6667" rx="4.5977" transform="matrix(1 0 0 -1 1 617.735)" stroke="#F0F0F0" stroke-width="0.431035"/>
<rect width="41.6667" height="41.6667" rx="4.5977" transform="matrix(1 0 0 -1 42.6667 617.735)" stroke="#F0F0F0" stroke-width="0.431035"/>
<rect width="41.6667" height="41.6667" rx="4.5977" transform="matrix(1 0 0 -1 84.3333 617.735)" stroke="#F0F0F0" stroke-width="0.431035"/>
<rect width="41.6667" height="41.6667" rx="4.5977" transform="matrix(1 0 0 -1 126 617.735)" stroke="#F0F0F0" stroke-width="0.431035"/>
<rect width="41.6667" height="41.6667" rx="4.5977" transform="matrix(1 0 0 -1 167.667 617.735)" stroke="#F0F0F0" stroke-width="0.431035"/>
<rect width="41.6667" height="41.6667" rx="4.5977" transform="matrix(1 0 0 -1 209.333 617.735)" stroke="#F0F0F0" stroke-width="0.431035"/>
<rect width="41.6667" height="41.6667" rx="4.5977" transform="matrix(1 0 0 -1 584 617.735)" stroke="#F0F0F0" stroke-width="0.431035"/>
<rect width="41.6667" height="41.6667" rx="4.5977" transform="matrix(1 0 0 -1 625.667 617.735)" stroke="#F0F0F0" stroke-width="0.431035"/>
<rect width="41.6667" height="41.6667" rx="4.5977" transform="matrix(1 0 0 -1 667.333 617.735)" stroke="#F0F0F0" stroke-width="0.431035"/>
<rect width="41.6667" height="41.6667" rx="4.5977" transform="matrix(1 0 0 -1 709 617.735)" stroke="#F0F0F0" stroke-width="0.431035"/>
<rect width="41.6667" height="41.6667" rx="4.5977" transform="matrix(1 0 0 -1 750.667 617.735)" stroke="#F0F0F0" stroke-width="0.431035"/>
<rect width="41.6667" height="41.6667" rx="4.5977" transform="matrix(1 0 0 -1 792.333 617.735)" stroke="#F0F0F0" stroke-width="0.431035"/>
<rect width="41.6667" height="41.6667" rx="4.5977" transform="matrix(-1 0 0 1 625.885 342)" stroke="#F0F0F0" stroke-width="0.431035"/>
<rect width="41.6667" height="41.6667" rx="4.5977" transform="matrix(-1 0 0 1 584.218 342)" stroke="#F0F0F0" stroke-width="0.431035"/>
<rect width="41.6667" height="41.6667" rx="4.5977" transform="matrix(-1 0 0 1 542.552 342)" stroke="#F0F0F0" stroke-width="0.431035"/>
<rect width="41.6667" height="41.6667" rx="4.5977" transform="matrix(-1 0 0 1 500.885 342)" stroke="#F0F0F0" stroke-width="0.431035"/>
<rect width="41.6667" height="41.6667" rx="4.5977" transform="matrix(-1 0 0 1 459.218 342)" stroke="#F0F0F0" stroke-width="0.431035"/>
<rect width="41.6667" height="41.6667" rx="4.5977" transform="matrix(-1 0 0 1 417.552 342)" stroke="#F0F0F0" stroke-width="0.431035"/>
<rect width="41.6667" height="41.6667" rx="4.5977" transform="matrix(-1 0 0 1 1208.89 342)" stroke="#F0F0F0" stroke-width="0.431035"/>
<rect width="41.6667" height="41.6667" rx="4.5977" transform="matrix(-1 0 0 1 1167.22 342)" stroke="#F0F0F0" stroke-width="0.431035"/>
<rect width="41.6667" height="41.6667" rx="4.5977" transform="matrix(-1 0 0 1 1125.55 342)" stroke="#F0F0F0" stroke-width="0.431035"/>
<rect width="41.6667" height="41.6667" rx="4.5977" transform="matrix(-1 0 0 1 1083.89 342)" stroke="#F0F0F0" stroke-width="0.431035"/>
<rect width="41.6667" height="41.6667" rx="4.5977" transform="matrix(-1 0 0 1 1042.22 342)" stroke="#F0F0F0" stroke-width="0.431035"/>
<rect width="41.6667" height="41.6667" rx="4.5977" transform="matrix(-1 0 0 1 1000.55 342)" stroke="#F0F0F0" stroke-width="0.431035"/>
<rect x="625.885" y="617.735" width="41.6667" height="41.6667" rx="4.5977" transform="rotate(-180 625.885 617.735)" stroke="#F0F0F0" stroke-width="0.431035"/>
<rect x="584.218" y="617.735" width="41.6667" height="41.6667" rx="4.5977" transform="rotate(-180 584.218 617.735)" stroke="#F0F0F0" stroke-width="0.431035"/>
<rect x="542.552" y="617.735" width="41.6667" height="41.6667" rx="4.5977" transform="rotate(-180 542.552 617.735)" stroke="#F0F0F0" stroke-width="0.431035"/>
<rect x="500.885" y="617.735" width="41.6667" height="41.6667" rx="4.5977" transform="rotate(-180 500.885 617.735)" stroke="#F0F0F0" stroke-width="0.431035"/>
<rect x="459.218" y="617.735" width="41.6667" height="41.6667" rx="4.5977" transform="rotate(-180 459.218 617.735)" stroke="#F0F0F0" stroke-width="0.431035"/>
<rect x="417.552" y="617.735" width="41.6667" height="41.6667" rx="4.5977" transform="rotate(-180 417.552 617.735)" stroke="#F0F0F0" stroke-width="0.431035"/>
<rect x="1208.89" y="617.735" width="41.6667" height="41.6667" rx="4.5977" transform="rotate(180 1208.89 617.735)" stroke="#F0F0F0" stroke-width="0.431035"/>
<rect x="1167.22" y="617.735" width="41.6667" height="41.6667" rx="4.5977" transform="rotate(180 1167.22 617.735)" stroke="#F0F0F0" stroke-width="0.431035"/>
<rect x="1125.55" y="617.735" width="41.6667" height="41.6667" rx="4.5977" transform="rotate(180 1125.55 617.735)" stroke="#F0F0F0" stroke-width="0.431035"/>
<rect x="1083.89" y="617.735" width="41.6667" height="41.6667" rx="4.5977" transform="rotate(180 1083.89 617.735)" stroke="#F0F0F0" stroke-width="0.431035"/>
<rect x="1042.22" y="617.735" width="41.6667" height="41.6667" rx="4.5977" transform="rotate(180 1042.22 617.735)" stroke="#F0F0F0" stroke-width="0.431035"/>
<rect x="1000.55" y="617.735" width="41.6667" height="41.6667" rx="4.5977" transform="rotate(180 1000.55 617.735)" stroke="#F0F0F0" stroke-width="0.431035"/>
<path d="M167.667 137.115V170.736C167.667 173.275 169.725 175.333 172.264 175.333H204.736C207.275 175.333 209.333 177.392 209.333 179.931V212.402C209.333 214.942 211.392 217 213.931 217H246.402C248.942 217 251 219.059 251 221.598V254.069C251 256.608 253.058 258.667 255.598 258.667H288.069C290.608 258.667 292.667 260.725 292.667 263.264V295.736C292.667 298.275 294.725 300.333 297.264 300.333H330.885M126 137.115V170.736C126 173.275 128.058 175.333 130.598 175.333H163.069C165.608 175.333 167.667 177.392 167.667 179.931V212.402C167.667 214.942 169.725 217 172.264 217H204.736C207.275 217 209.333 219.059 209.333 221.598V254.069C209.333 256.608 207.275 258.667 204.736 258.667H172.264C169.725 258.667 167.667 256.608 167.667 254.069V221.023L167.626 220.751C167.318 218.669 165.55 217.114 163.446 217.074L159.621 217H130.598C128.058 217 126 219.059 126 221.598V254.069C126 256.608 128.058 258.667 130.598 258.667H163.356L164.448 258.739C166.259 258.86 167.667 260.365 167.667 262.18V265.707M167.667 262.115V295.736C167.667 298.275 169.725 300.333 172.264 300.333H204.736C207.275 300.333 209.333 302.392 209.333 304.931V337.402C209.333 339.942 211.392 342 213.931 342H246.402C248.942 342 251 344.059 251 346.598V379.069C251 381.608 253.058 383.667 255.598 383.667H288.069C290.608 383.667 292.667 385.725 292.667 388.264V420.736C292.667 423.275 294.725 425.333 297.264 425.333H330.885" stroke="url(#paint0_linear_2205_2)" stroke-opacity="0.8" stroke-width="0.431035"/>
<path d="M750.667 137.115V170.736C750.667 173.275 752.725 175.333 755.264 175.333H787.736C790.275 175.333 792.333 177.392 792.333 179.931V212.402C792.333 214.942 794.392 217 796.931 217H829.402C831.942 217 834 219.059 834 221.598V254.069C834 256.608 836.058 258.667 838.598 258.667H871.069C873.608 258.667 875.667 260.725 875.667 263.264V295.736C875.667 298.275 877.725 300.333 880.264 300.333H913.885M709 137.115V170.736C709 173.275 711.058 175.333 713.598 175.333H746.069C748.608 175.333 750.667 177.392 750.667 179.931V212.402C750.667 214.942 752.725 217 755.264 217H787.736C790.275 217 792.333 219.059 792.333 221.598V254.069C792.333 256.608 790.275 258.667 787.736 258.667H755.264C752.725 258.667 750.667 256.608 750.667 254.069V221.023L750.626 220.751C750.318 218.669 748.55 217.114 746.446 217.074L742.621 217H713.598C711.058 217 709 219.059 709 221.598V254.069C709 256.608 711.058 258.667 713.598 258.667H746.356L747.448 258.739C749.259 258.86 750.667 260.365 750.667 262.18V265.707M750.667 262.115V295.736C750.667 298.275 752.725 300.333 755.264 300.333H787.736C790.275 300.333 792.333 302.392 792.333 304.931V337.402C792.333 339.942 794.392 342 796.931 342H829.402C831.942 342 834 344.059 834 346.598V379.069C834 381.608 836.058 383.667 838.598 383.667H871.069C873.608 383.667 875.667 385.725 875.667 388.264V420.736C875.667 423.275 877.725 425.333 880.264 425.333H913.885" stroke="url(#paint1_linear_2205_2)" stroke-opacity="0.8" stroke-width="0.431035"/>
<path d="M167.667 822.621V789C167.667 786.461 169.725 784.402 172.264 784.402H204.736C207.275 784.402 209.333 782.344 209.333 779.805V747.333C209.333 744.794 211.392 742.736 213.931 742.736H246.402C248.942 742.736 251 740.677 251 738.138V705.667C251 703.127 253.058 701.069 255.598 701.069H288.069C290.608 701.069 292.667 699.01 292.667 696.471V664C292.667 661.461 294.725 659.402 297.264 659.402H330.885M126 822.621V789C126 786.461 128.058 784.402 130.598 784.402H163.069C165.608 784.402 167.667 782.344 167.667 779.805V747.333C167.667 744.794 169.725 742.736 172.264 742.736H204.736C207.275 742.736 209.333 740.677 209.333 738.138V705.667C209.333 703.127 207.275 701.069 204.736 701.069H172.264C169.725 701.069 167.667 703.127 167.667 705.667V738.713L167.626 738.984C167.318 741.067 165.55 742.622 163.446 742.662L159.621 742.736H130.598C128.058 742.736 126 740.677 126 738.138V705.667C126 703.127 128.058 701.069 130.598 701.069H163.356L164.448 700.996C166.259 700.875 167.667 699.371 167.667 697.555V694.029M167.667 697.621V664C167.667 661.461 169.725 659.402 172.264 659.402H204.736C207.275 659.402 209.333 657.344 209.333 654.805V622.333C209.333 619.794 211.392 617.736 213.931 617.736H246.402C248.942 617.736 251 615.677 251 613.138V580.667C251 578.127 253.058 576.069 255.598 576.069H288.069C290.608 576.069 292.667 574.01 292.667 571.471V539C292.667 536.461 294.725 534.402 297.264 534.402H330.885" stroke="url(#paint2_linear_2205_2)" stroke-opacity="0.8" stroke-width="0.431035"/>
<path d="M750.667 822.621V789C750.667 786.461 752.725 784.402 755.264 784.402H787.736C790.275 784.402 792.333 782.344 792.333 779.805V747.333C792.333 744.794 794.392 742.736 796.931 742.736H829.402C831.942 742.736 834 740.677 834 738.138V705.667C834 703.127 836.058 701.069 838.598 701.069H871.069C873.608 701.069 875.667 699.01 875.667 696.471V664C875.667 661.461 877.725 659.402 880.264 659.402H913.885M709 822.621V789C709 786.461 711.058 784.402 713.598 784.402H746.069C748.608 784.402 750.667 782.344 750.667 779.805V747.333C750.667 744.794 752.725 742.736 755.264 742.736H787.736C790.275 742.736 792.333 740.677 792.333 738.138V705.667C792.333 703.127 790.275 701.069 787.736 701.069H755.264C752.725 701.069 750.667 703.127 750.667 705.667V738.713L750.626 738.984C750.318 741.067 748.55 742.622 746.446 742.662L742.621 742.736H713.598C711.058 742.736 709 740.677 709 738.138V705.667C709 703.127 711.058 701.069 713.598 701.069H746.356L747.448 700.996C749.259 700.875 750.667 699.371 750.667 697.555V694.029M750.667 697.621V664C750.667 661.461 752.725 659.402 755.264 659.402H787.736C790.275 659.402 792.333 657.344 792.333 654.805V622.333C792.333 619.794 794.392 617.736 796.931 617.736H829.402C831.942 617.736 834 615.677 834 613.138V580.667C834 578.127 836.058 576.069 838.598 576.069H871.069C873.608 576.069 875.667 574.01 875.667 571.471V539C875.667 536.461 877.725 534.402 880.264 534.402H913.885" stroke="url(#paint3_linear_2205_2)" stroke-opacity="0.8" stroke-width="0.431035"/>
<path d="M459.218 137.115V170.736C459.218 173.275 457.16 175.333 454.621 175.333H422.149C419.61 175.333 417.552 177.392 417.552 179.931V212.402C417.552 214.942 415.493 217 412.954 217H380.483C377.944 217 375.885 219.059 375.885 221.598V254.069C375.885 256.608 373.827 258.667 371.287 258.667H338.816C336.277 258.667 334.218 260.725 334.218 263.264V295.736C334.218 298.275 332.16 300.333 329.621 300.333H296M500.885 137.115V170.736C500.885 173.275 498.827 175.333 496.287 175.333H463.816C461.277 175.333 459.218 177.392 459.218 179.931V212.402C459.218 214.942 457.16 217 454.621 217H422.149C419.61 217 417.552 219.059 417.552 221.598V254.069C417.552 256.608 419.61 258.667 422.149 258.667H454.621C457.16 258.667 459.218 256.608 459.218 254.069V221.023L459.259 220.751C459.567 218.669 461.335 217.114 463.44 217.074L467.264 217H496.287C498.827 217 500.885 219.059 500.885 221.598V254.069C500.885 256.608 498.827 258.667 496.287 258.667H463.529L462.437 258.739C460.626 258.86 459.218 260.365 459.218 262.18V265.707M459.218 262.115V295.736C459.218 298.275 457.16 300.333 454.621 300.333H422.149C419.61 300.333 417.552 302.392 417.552 304.931V337.402C417.552 339.942 415.493 342 412.954 342H380.483C377.944 342 375.885 344.059 375.885 346.598V379.069C375.885 381.608 373.827 383.667 371.287 383.667H338.816C336.277 383.667 334.218 385.725 334.218 388.264V420.736C334.218 423.275 332.16 425.333 329.621 425.333H296" stroke="url(#paint4_linear_2205_2)" stroke-opacity="0.8" stroke-width="0.431035"/>
<path d="M1042.22 137.115V170.736C1042.22 173.275 1040.16 175.333 1037.62 175.333H1005.15C1002.61 175.333 1000.55 177.392 1000.55 179.931V212.402C1000.55 214.942 998.493 217 995.954 217H963.483C960.943 217 958.885 219.059 958.885 221.598V254.069C958.885 256.608 956.827 258.667 954.287 258.667H921.816C919.277 258.667 917.218 260.725 917.218 263.264V295.736C917.218 298.275 915.16 300.333 912.621 300.333H879M1083.89 137.115V170.736C1083.89 173.275 1081.83 175.333 1079.29 175.333H1046.82C1044.28 175.333 1042.22 177.392 1042.22 179.931V212.402C1042.22 214.942 1040.16 217 1037.62 217H1005.15C1002.61 217 1000.55 219.059 1000.55 221.598V254.069C1000.55 256.608 1002.61 258.667 1005.15 258.667H1037.62C1040.16 258.667 1042.22 256.608 1042.22 254.069V221.023L1042.26 220.751C1042.57 218.669 1044.33 217.114 1046.44 217.074L1050.26 217H1079.29C1081.83 217 1083.89 219.059 1083.89 221.598V254.069C1083.89 256.608 1081.83 258.667 1079.29 258.667H1046.53L1045.44 258.739C1043.63 258.86 1042.22 260.365 1042.22 262.18V265.707M1042.22 262.115V295.736C1042.22 298.275 1040.16 300.333 1037.62 300.333H1005.15C1002.61 300.333 1000.55 302.392 1000.55 304.931V337.402C1000.55 339.942 998.493 342 995.954 342H963.483C960.943 342 958.885 344.059 958.885 346.598V379.069C958.885 381.608 956.827 383.667 954.287 383.667H921.816C919.277 383.667 917.218 385.725 917.218 388.264V420.736C917.218 423.275 915.16 425.333 912.621 425.333H879" stroke="url(#paint5_linear_2205_2)" stroke-opacity="0.8" stroke-width="0.431035"/>
<path d="M459.218 822.621V789C459.218 786.461 457.16 784.402 454.621 784.402H422.149C419.61 784.402 417.552 782.344 417.552 779.805V747.333C417.552 744.794 415.493 742.736 412.954 742.736H380.483C377.944 742.736 375.885 740.677 375.885 738.138V705.667C375.885 703.127 373.827 701.069 371.287 701.069H338.816C336.277 701.069 334.218 699.01 334.218 696.471V664C334.218 661.461 332.16 659.402 329.621 659.402H296M500.885 822.621V789C500.885 786.461 498.827 784.402 496.287 784.402H463.816C461.277 784.402 459.218 782.344 459.218 779.805V747.333C459.218 744.794 457.16 742.736 454.621 742.736H422.149C419.61 742.736 417.552 740.677 417.552 738.138V705.667C417.552 703.127 419.61 701.069 422.149 701.069H454.621C457.16 701.069 459.218 703.127 459.218 705.667V738.713L459.259 738.984C459.567 741.067 461.335 742.622 463.44 742.662L467.264 742.736H496.287C498.827 742.736 500.885 740.677 500.885 738.138V705.667C500.885 703.127 498.827 701.069 496.287 701.069H463.529L462.437 700.996C460.626 700.875 459.218 699.371 459.218 697.555V694.029M459.218 697.621V664C459.218 661.461 457.16 659.402 454.621 659.402H422.149C419.61 659.402 417.552 657.344 417.552 654.805V622.333C417.552 619.794 415.493 617.736 412.954 617.736H380.483C377.944 617.736 375.885 615.677 375.885 613.138V580.667C375.885 578.127 373.827 576.069 371.287 576.069H338.816C336.277 576.069 334.218 574.01 334.218 571.471V539C334.218 536.461 332.16 534.402 329.621 534.402H296" stroke="url(#paint6_linear_2205_2)" stroke-opacity="0.8" stroke-width="0.431035"/>
<path d="M1042.22 822.621V789C1042.22 786.461 1040.16 784.402 1037.62 784.402H1005.15C1002.61 784.402 1000.55 782.344 1000.55 779.805V747.333C1000.55 744.794 998.493 742.736 995.954 742.736H963.483C960.943 742.736 958.885 740.677 958.885 738.138V705.667C958.885 703.127 956.827 701.069 954.287 701.069H921.816C919.277 701.069 917.218 699.01 917.218 696.471V664C917.218 661.461 915.16 659.402 912.621 659.402H879M1083.89 822.621V789C1083.89 786.461 1081.83 784.402 1079.29 784.402H1046.82C1044.28 784.402 1042.22 782.344 1042.22 779.805V747.333C1042.22 744.794 1040.16 742.736 1037.62 742.736H1005.15C1002.61 742.736 1000.55 740.677 1000.55 738.138V705.667C1000.55 703.127 1002.61 701.069 1005.15 701.069H1037.62C1040.16 701.069 1042.22 703.127 1042.22 705.667V738.713L1042.26 738.984C1042.57 741.067 1044.33 742.622 1046.44 742.662L1050.26 742.736H1079.29C1081.83 742.736 1083.89 740.677 1083.89 738.138V705.667C1083.89 703.127 1081.83 701.069 1079.29 701.069H1046.53L1045.44 700.996C1043.63 700.875 1042.22 699.371 1042.22 697.555V694.029M1042.22 697.621V664C1042.22 661.461 1040.16 659.402 1037.62 659.402H1005.15C1002.61 659.402 1000.55 657.344 1000.55 654.805V622.333C1000.55 619.794 998.493 617.736 995.954 617.736H963.483C960.943 617.736 958.885 615.677 958.885 613.138V580.667C958.885 578.127 956.827 576.069 954.287 576.069H921.816C919.277 576.069 917.218 574.01 917.218 571.471V539C917.218 536.461 915.16 534.402 912.621 534.402H879" stroke="url(#paint7_linear_2205_2)" stroke-opacity="0.8" stroke-width="0.431035"/>
<rect x="1" y="394.621" width="233.621" height="125" transform="rotate(-90 1 394.621)" fill="url(#paint8_linear_2205_2)"/>
<rect x="584" y="394.621" width="233.621" height="125" transform="rotate(-90 584 394.621)" fill="url(#paint9_linear_2205_2)"/>
<rect width="233.621" height="125" transform="matrix(0 1 1 0 1 565.115)" fill="url(#paint10_linear_2205_2)"/>
<rect width="233.621" height="125" transform="matrix(0 1 1 0 584 565.115)" fill="url(#paint11_linear_2205_2)"/>
<rect width="233.621" height="125" transform="matrix(0 -1 -1 0 625.885 394.621)" fill="url(#paint12_linear_2205_2)"/>
<rect width="233.621" height="125" transform="matrix(0 -1 -1 0 1208.89 394.621)" fill="url(#paint13_linear_2205_2)"/>
<rect x="625.885" y="565.115" width="233.621" height="125" transform="rotate(90 625.885 565.115)" fill="url(#paint14_linear_2205_2)"/>
<rect x="1208.89" y="565.115" width="233.621" height="125" transform="rotate(90 1208.89 565.115)" fill="url(#paint15_linear_2205_2)"/>
<rect x="234.621" y="425.368" width="233.621" height="125" transform="rotate(-180 234.621 425.368)" fill="url(#paint16_linear_2205_2)"/>
<rect x="817.621" y="425.368" width="233.621" height="125" transform="rotate(-180 817.621 425.368)" fill="url(#paint17_linear_2205_2)"/>
<rect width="233.621" height="125" transform="matrix(-1 0 0 1 234.621 534.368)" fill="url(#paint18_linear_2205_2)"/>
<rect width="233.621" height="125" transform="matrix(-1 0 0 1 817.621 534.368)" fill="url(#paint19_linear_2205_2)"/>
<rect width="233.621" height="125" transform="matrix(1 0 0 -1 392.264 425.368)" fill="url(#paint20_linear_2205_2)"/>
<rect width="233.621" height="125" transform="matrix(1 0 0 -1 975.264 425.368)" fill="url(#paint21_linear_2205_2)"/>
<rect x="392.264" y="534.368" width="233.621" height="125" fill="url(#paint22_linear_2205_2)"/>
<rect x="975.264" y="534.368" width="233.621" height="125" fill="url(#paint23_linear_2205_2)"/>
<ellipse cx="164.218" cy="132.839" rx="155.46" ry="132.471" fill="url(#paint24_radial_2205_2)"/>
<ellipse cx="747.218" cy="132.839" rx="155.46" ry="132.471" fill="url(#paint25_radial_2205_2)"/>
<ellipse cx="155.46" cy="132.471" rx="155.46" ry="132.471" transform="matrix(1 0 0 -1 8.75862 959.368)" fill="url(#paint26_radial_2205_2)"/>
<ellipse cx="155.46" cy="132.471" rx="155.46" ry="132.471" transform="matrix(1 0 0 -1 591.759 959.368)" fill="url(#paint27_radial_2205_2)"/>
<ellipse cx="155.46" cy="132.471" rx="155.46" ry="132.471" transform="matrix(-1 0 0 1 618.126 0.367798)" fill="url(#paint28_radial_2205_2)"/>
<ellipse cx="155.46" cy="132.471" rx="155.46" ry="132.471" transform="matrix(-1 0 0 1 1201.13 0.367798)" fill="url(#paint29_radial_2205_2)"/>
<ellipse cx="462.667" cy="826.896" rx="155.46" ry="132.471" transform="rotate(-180 462.667 826.896)" fill="url(#paint30_radial_2205_2)"/>
<ellipse cx="1045.67" cy="826.896" rx="155.46" ry="132.471" transform="rotate(180 1045.67 826.896)" fill="url(#paint31_radial_2205_2)"/>
<defs>
<linearGradient id="paint0_linear_2205_2" x1="126" y1="137.115" x2="326.287" y2="384.96" gradientUnits="userSpaceOnUse">
<stop offset="0.0819437" stop-color="#F7F7F7"/>
<stop offset="0.208333" stop-color="#12C2E9"/>
<stop offset="0.526042" stop-color="#C471ED"/>
<stop offset="0.9375" stop-color="#F64F59"/>
</linearGradient>
<linearGradient id="paint1_linear_2205_2" x1="709" y1="137.115" x2="909.287" y2="384.96" gradientUnits="userSpaceOnUse">
<stop offset="0.0819437" stop-color="#F7F7F7"/>
<stop offset="0.208333" stop-color="#12C2E9"/>
<stop offset="0.526042" stop-color="#C471ED"/>
<stop offset="0.9375" stop-color="#F64F59"/>
</linearGradient>
<linearGradient id="paint2_linear_2205_2" x1="126" y1="822.621" x2="326.287" y2="574.776" gradientUnits="userSpaceOnUse">
<stop offset="0.0819437" stop-color="#F7F7F7"/>
<stop offset="0.208333" stop-color="#12C2E9"/>
<stop offset="0.526042" stop-color="#C471ED"/>
<stop offset="0.9375" stop-color="#F64F59"/>
</linearGradient>
<linearGradient id="paint3_linear_2205_2" x1="709" y1="822.621" x2="909.287" y2="574.776" gradientUnits="userSpaceOnUse">
<stop offset="0.0819437" stop-color="#F7F7F7"/>
<stop offset="0.208333" stop-color="#12C2E9"/>
<stop offset="0.526042" stop-color="#C471ED"/>
<stop offset="0.9375" stop-color="#F64F59"/>
</linearGradient>
<linearGradient id="paint4_linear_2205_2" x1="500.885" y1="137.115" x2="300.598" y2="384.96" gradientUnits="userSpaceOnUse">
<stop offset="0.0819437" stop-color="#F7F7F7"/>
<stop offset="0.208333" stop-color="#12C2E9"/>
<stop offset="0.526042" stop-color="#C471ED"/>
<stop offset="0.9375" stop-color="#F64F59"/>
</linearGradient>
<linearGradient id="paint5_linear_2205_2" x1="1083.89" y1="137.115" x2="883.598" y2="384.96" gradientUnits="userSpaceOnUse">
<stop offset="0.0819437" stop-color="#F7F7F7"/>
<stop offset="0.208333" stop-color="#12C2E9"/>
<stop offset="0.526042" stop-color="#C471ED"/>
<stop offset="0.9375" stop-color="#F64F59"/>
</linearGradient>
<linearGradient id="paint6_linear_2205_2" x1="500.885" y1="822.621" x2="300.598" y2="574.776" gradientUnits="userSpaceOnUse">
<stop offset="0.0819437" stop-color="#F7F7F7"/>
<stop offset="0.208333" stop-color="#12C2E9"/>
<stop offset="0.526042" stop-color="#C471ED"/>
<stop offset="0.9375" stop-color="#F64F59"/>
</linearGradient>
<linearGradient id="paint7_linear_2205_2" x1="1083.89" y1="822.621" x2="883.598" y2="574.776" gradientUnits="userSpaceOnUse">
<stop offset="0.0819437" stop-color="#F7F7F7"/>
<stop offset="0.208333" stop-color="#12C2E9"/>
<stop offset="0.526042" stop-color="#C471ED"/>
<stop offset="0.9375" stop-color="#F64F59"/>
</linearGradient>
<linearGradient id="paint8_linear_2205_2" x1="117.81" y1="394.621" x2="117.81" y2="519.621" gradientUnits="userSpaceOnUse">
<stop stop-color="white"/>
<stop offset="1" stop-color="white" stop-opacity="0"/>
</linearGradient>
<linearGradient id="paint9_linear_2205_2" x1="700.81" y1="394.621" x2="700.81" y2="519.621" gradientUnits="userSpaceOnUse">
<stop stop-color="white"/>
<stop offset="1" stop-color="white" stop-opacity="0"/>
</linearGradient>
<linearGradient id="paint10_linear_2205_2" x1="116.81" y1="0" x2="116.81" y2="125" gradientUnits="userSpaceOnUse">
<stop stop-color="white"/>
<stop offset="1" stop-color="white" stop-opacity="0"/>
</linearGradient>
<linearGradient id="paint11_linear_2205_2" x1="116.81" y1="0" x2="116.81" y2="125" gradientUnits="userSpaceOnUse">
<stop stop-color="white"/>
<stop offset="1" stop-color="white" stop-opacity="0"/>
</linearGradient>
<linearGradient id="paint12_linear_2205_2" x1="116.81" y1="0" x2="116.81" y2="125" gradientUnits="userSpaceOnUse">
<stop stop-color="white"/>
<stop offset="1" stop-color="white" stop-opacity="0"/>
</linearGradient>
<linearGradient id="paint13_linear_2205_2" x1="116.81" y1="0" x2="116.81" y2="125" gradientUnits="userSpaceOnUse">
<stop stop-color="white"/>
<stop offset="1" stop-color="white" stop-opacity="0"/>
</linearGradient>
<linearGradient id="paint14_linear_2205_2" x1="742.695" y1="565.115" x2="742.695" y2="690.115" gradientUnits="userSpaceOnUse">
<stop stop-color="white"/>
<stop offset="1" stop-color="white" stop-opacity="0"/>
</linearGradient>
<linearGradient id="paint15_linear_2205_2" x1="1325.7" y1="565.115" x2="1325.7" y2="690.115" gradientUnits="userSpaceOnUse">
<stop stop-color="white"/>
<stop offset="1" stop-color="white" stop-opacity="0"/>
</linearGradient>
<linearGradient id="paint16_linear_2205_2" x1="351.431" y1="425.368" x2="351.431" y2="550.368" gradientUnits="userSpaceOnUse">
<stop stop-color="white"/>
<stop offset="0.713542" stop-color="white" stop-opacity="0.7"/>
<stop offset="1" stop-color="white" stop-opacity="0"/>
</linearGradient>
<linearGradient id="paint17_linear_2205_2" x1="934.431" y1="425.368" x2="934.431" y2="550.368" gradientUnits="userSpaceOnUse">
<stop stop-color="white"/>
<stop offset="0.713542" stop-color="white" stop-opacity="0.7"/>
<stop offset="1" stop-color="white" stop-opacity="0"/>
</linearGradient>
<linearGradient id="paint18_linear_2205_2" x1="116.81" y1="0" x2="116.81" y2="125" gradientUnits="userSpaceOnUse">
<stop stop-color="white"/>
<stop offset="0.713542" stop-color="white" stop-opacity="0.7"/>
<stop offset="1" stop-color="white" stop-opacity="0"/>
</linearGradient>
<linearGradient id="paint19_linear_2205_2" x1="116.81" y1="0" x2="116.81" y2="125" gradientUnits="userSpaceOnUse">
<stop stop-color="white"/>
<stop offset="0.713542" stop-color="white" stop-opacity="0.7"/>
<stop offset="1" stop-color="white" stop-opacity="0"/>
</linearGradient>
<linearGradient id="paint20_linear_2205_2" x1="116.81" y1="0" x2="116.81" y2="125" gradientUnits="userSpaceOnUse">
<stop stop-color="white"/>
<stop offset="0.713542" stop-color="white" stop-opacity="0.7"/>
<stop offset="1" stop-color="white" stop-opacity="0"/>
</linearGradient>
<linearGradient id="paint21_linear_2205_2" x1="116.81" y1="0" x2="116.81" y2="125" gradientUnits="userSpaceOnUse">
<stop stop-color="white"/>
<stop offset="0.713542" stop-color="white" stop-opacity="0.7"/>
<stop offset="1" stop-color="white" stop-opacity="0"/>
</linearGradient>
<linearGradient id="paint22_linear_2205_2" x1="509.075" y1="534.368" x2="509.075" y2="659.368" gradientUnits="userSpaceOnUse">
<stop stop-color="white"/>
<stop offset="0.713542" stop-color="white" stop-opacity="0.7"/>
<stop offset="1" stop-color="white" stop-opacity="0"/>
</linearGradient>
<linearGradient id="paint23_linear_2205_2" x1="1092.07" y1="534.368" x2="1092.07" y2="659.368" gradientUnits="userSpaceOnUse">
<stop stop-color="white"/>
<stop offset="0.713542" stop-color="white" stop-opacity="0.7"/>
<stop offset="1" stop-color="white" stop-opacity="0"/>
</linearGradient>
<radialGradient id="paint24_radial_2205_2" cx="0" cy="0" r="1" gradientUnits="userSpaceOnUse" gradientTransform="translate(164.218 132.839) rotate(90) scale(132.471 155.46)">
<stop stop-color="white"/>
<stop offset="1" stop-color="white" stop-opacity="0"/>
</radialGradient>
<radialGradient id="paint25_radial_2205_2" cx="0" cy="0" r="1" gradientUnits="userSpaceOnUse" gradientTransform="translate(747.218 132.839) rotate(90) scale(132.471 155.46)">
<stop stop-color="white"/>
<stop offset="1" stop-color="white" stop-opacity="0"/>
</radialGradient>
<radialGradient id="paint26_radial_2205_2" cx="0" cy="0" r="1" gradientUnits="userSpaceOnUse" gradientTransform="translate(155.46 132.471) rotate(90) scale(132.471 155.46)">
<stop stop-color="white"/>
<stop offset="1" stop-color="white" stop-opacity="0"/>
</radialGradient>
<radialGradient id="paint27_radial_2205_2" cx="0" cy="0" r="1" gradientUnits="userSpaceOnUse" gradientTransform="translate(155.46 132.471) rotate(90) scale(132.471 155.46)">
<stop stop-color="white"/>
<stop offset="1" stop-color="white" stop-opacity="0"/>
</radialGradient>
<radialGradient id="paint28_radial_2205_2" cx="0" cy="0" r="1" gradientUnits="userSpaceOnUse" gradientTransform="translate(155.46 132.471) rotate(90) scale(132.471 155.46)">
<stop stop-color="white"/>
<stop offset="1" stop-color="white" stop-opacity="0"/>
</radialGradient>
<radialGradient id="paint29_radial_2205_2" cx="0" cy="0" r="1" gradientUnits="userSpaceOnUse" gradientTransform="translate(155.46 132.471) rotate(90) scale(132.471 155.46)">
<stop stop-color="white"/>
<stop offset="1" stop-color="white" stop-opacity="0"/>
</radialGradient>
<radialGradient id="paint30_radial_2205_2" cx="0" cy="0" r="1" gradientUnits="userSpaceOnUse" gradientTransform="translate(462.667 826.896) rotate(90) scale(132.471 155.46)">
<stop stop-color="white"/>
<stop offset="1" stop-color="white" stop-opacity="0"/>
</radialGradient>
<radialGradient id="paint31_radial_2205_2" cx="0" cy="0" r="1" gradientUnits="userSpaceOnUse" gradientTransform="translate(1045.67 826.896) rotate(90) scale(132.471 155.46)">
<stop stop-color="white"/>
<stop offset="1" stop-color="white" stop-opacity="0"/>
</radialGradient>
</defs>
</svg>
